<?xml version="1.0" standalone="no"?>
<!DOCTYPE svg PUBLIC "-//W3C//DTD SVG 20010904//EN"
 "http://www.w3.org/TR/2001/REC-SVG-20010904/DTD/svg10.dtd">
<svg version="1.0" xmlns="http://www.w3.org/2000/svg"
 width="884.000000pt" height="884.000000pt" viewBox="0 0 884.000000 884.000000"
 preserveAspectRatio="xMidYMid meet">
<metadata>
Created by potrace 1.14, written by Peter Selinger 2001-2017
</metadata>
<g transform="translate(0.000000,884.000000) scale(0.100000,-0.100000)"
fill="#000000" stroke="none">
<path d="M1960 8408 c0 -5 -4 -7 -9 -3 -5 3 -16 -1 -24 -9 -8 -8 -17 -13 -20
-10 -3 3 -8 -4 -12 -15 -3 -12 -11 -21 -16 -21 -5 0 -9 -10 -9 -23 0 -13 -5
-28 -12 -35 -9 -9 -9 -12 1 -12 7 0 9 -5 5 -12 -13 -21 -13 -58 -1 -58 7 0 6
-4 -3 -10 -11 -7 -11 -10 -2 -10 10 0 10 -5 2 -20 -8 -15 -8 -20 1 -20 8 0 8
-4 -1 -15 -9 -11 -9 -15 -1 -15 7 0 9 -5 5 -12 -13 -21 -13 -58 -1 -58 7 0 6
-4 -3 -10 -10 -6 -11 -10 -2 -10 6 0 12 -5 12 -11 0 -5 -4 -8 -8 -5 -4 2 -8
-4 -8 -15 0 -10 4 -19 8 -19 4 0 8 -9 8 -19 0 -11 5 -23 10 -26 6 -4 8 -10 5
-15 -3 -4 8 -14 24 -21 16 -7 28 -16 26 -20 -2 -3 12 -6 31 -7 19 -1 39 -4 44
-7 6 -4 10 -2 10 4 0 6 6 8 14 5 7 -3 20 2 29 10 8 8 16 14 18 12 2 -2 15 10
29 27 14 17 18 27 10 22 -12 -7 -13 -6 -3 6 6 8 12 19 13 24 1 6 7 9 13 7 6
-2 4 4 -3 13 -12 14 -11 18 1 26 8 5 9 9 3 9 -12 0 -11 41 2 61 4 7 3 10 -3 6
-7 -4 -10 12 -10 43 1 31 5 46 12 42 5 -3 4 2 -4 12 -13 15 -13 19 0 27 8 5 9
9 4 9 -9 0 -12 18 -16 93 0 9 -4 17 -10 17 -5 0 -9 5 -9 11 0 13 -25 39 -38
39 -6 0 -12 4 -14 10 -4 12 -98 20 -98 8z"/>
<path d="M4436 8282 c-3 -5 -19 -12 -36 -16 -18 -3 -29 -10 -25 -16 3 -5 -1
-10 -10 -10 -9 0 -14 -4 -11 -9 3 -5 -1 -11 -9 -15 -8 -3 -15 -13 -15 -21 0
-10 -5 -13 -12 -9 -7 5 -8 3 -4 -5 5 -7 0 -21 -11 -33 -12 -15 -13 -19 -3 -14
9 5 8 2 -2 -7 -10 -8 -15 -17 -11 -20 3 -4 0 -7 -7 -7 -7 0 -10 -3 -7 -7 4 -3
1 -13 -7 -22 -14 -16 -16 -20 -16 -42 0 -5 -5 -7 -10 -4 -6 4 -9 3 -8 -2 4
-13 -24 -83 -34 -83 -4 0 -7 -3 -6 -7 3 -12 -25 -83 -33 -83 -3 0 -9 -14 -13
-31 -4 -20 -10 -28 -17 -23 -8 4 -9 3 -5 -5 4 -6 3 -17 -2 -24 -5 -7 -8 -20
-7 -30 2 -9 -1 -15 -5 -12 -5 3 -11 1 -15 -5 -3 -5 -1 -10 6 -10 7 0 4 -7 -7
-15 -10 -8 -15 -15 -10 -15 5 0 3 -7 -4 -15 -6 -8 -9 -19 -5 -25 3 -5 -1 -13
-9 -16 -9 -3 -16 -14 -16 -23 0 -9 -4 -21 -10 -27 -5 -5 -11 -21 -14 -34 -2
-14 -8 -24 -14 -23 -6 2 -9 -6 -7 -17 2 -11 -1 -22 -6 -25 -5 -4 -7 -11 -4
-16 4 -5 1 -9 -5 -9 -7 0 -9 -7 -6 -15 3 -9 -1 -18 -9 -21 -7 -3 -11 -12 -8
-20 3 -8 1 -14 -4 -14 -5 0 -10 -6 -11 -12 -2 -25 -8 -48 -15 -54 -4 -4 -7
-16 -7 -26 0 -10 -5 -18 -12 -18 -6 0 -8 -3 -5 -7 4 -3 2 -12 -3 -19 -6 -6
-10 -16 -9 -20 4 -21 -2 -35 -11 -29 -6 4 -10 3 -9 -2 4 -21 -2 -54 -8 -50 -5
3 -9 -9 -10 -26 -2 -18 -7 -33 -13 -35 -7 -3 -6 -9 2 -20 7 -9 8 -13 2 -9 -6
3 -17 -9 -26 -28 -8 -19 -12 -32 -7 -29 5 3 6 -2 3 -10 -3 -9 -9 -16 -13 -16
-4 0 -8 -9 -9 -20 -4 -43 -6 -50 -13 -50 -4 0 -6 -9 -4 -20 2 -11 0 -18 -4
-15 -5 3 -12 -2 -15 -11 -4 -10 -2 -13 7 -8 9 6 9 5 0 -8 -7 -8 -10 -18 -6
-21 3 -4 1 -7 -5 -7 -7 0 -11 -3 -10 -7 4 -18 -15 -83 -24 -83 -5 0 -6 -5 -3
-10 4 -6 1 -18 -7 -27 -11 -14 -11 -16 1 -9 8 6 7 0 -4 -18 -10 -14 -14 -26
-10 -26 4 0 2 -7 -5 -15 -7 -8 -9 -15 -4 -15 4 0 3 -5 -4 -12 -16 -16 -15 -31
1 -23 6 4 5 1 -3 -7 -8 -7 -15 -19 -16 -25 -3 -39 -5 -44 -14 -38 -13 8 -8
-18 5 -27 6 -5 5 -8 -3 -8 -7 0 -10 -4 -7 -10 3 -5 2 -10 -2 -10 -5 0 -9 -8
-10 -17 -4 -44 -12 -76 -21 -85 -6 -6 -8 -17 -5 -24 3 -8 1 -14 -5 -14 -6 0
-9 -8 -7 -17 1 -10 -3 -24 -9 -32 -9 -12 -8 -13 4 -6 12 6 13 5 3 -6 -7 -7
-13 -23 -13 -36 0 -13 -6 -23 -12 -23 -9 0 -8 -4 2 -10 11 -7 11 -10 2 -10 -7
0 -11 -4 -8 -8 3 -5 -1 -21 -9 -36 -10 -18 -10 -24 -2 -19 9 5 9 3 1 -8 -6 -8
-10 -22 -9 -31 2 -10 -1 -18 -6 -18 -5 0 -9 -5 -9 -11 0 -5 5 -7 11 -3 6 3 4
-4 -4 -17 -8 -13 -13 -32 -12 -41 2 -10 -1 -18 -5 -18 -5 0 -7 -9 -5 -20 2
-11 0 -22 -5 -25 -5 -3 -7 -12 -3 -20 3 -8 0 -15 -6 -15 -6 0 -8 -7 -5 -15 4
-8 1 -22 -6 -30 -7 -8 -8 -15 -3 -15 5 0 10 -7 10 -15 0 -8 -4 -12 -9 -9 -4 3
-9 -6 -9 -20 -2 -35 -3 -39 -13 -55 -7 -10 -6 -12 3 -6 10 6 11 3 2 -13 -6
-11 -11 -34 -11 -51 0 -17 -4 -31 -10 -31 -5 0 -10 -5 -10 -11 0 -5 5 -7 11
-3 8 5 8 1 0 -13 -5 -11 -11 -37 -13 -57 -1 -21 -6 -40 -11 -43 -4 -2 -3 -11
3 -18 8 -9 8 -15 0 -20 -6 -3 -8 -11 -5 -16 4 -5 2 -9 -3 -9 -5 0 -8 -13 -6
-30 2 -16 0 -30 -4 -30 -5 0 -7 -16 -6 -35 2 -22 -1 -35 -9 -35 -7 0 -6 -4 3
-10 8 -5 10 -10 4 -10 -6 0 -11 -15 -11 -32 0 -18 -4 -41 -8 -50 -4 -12 -3
-18 5 -18 9 0 10 -3 1 -13 -6 -8 -8 -17 -4 -20 3 -4 2 -7 -4 -7 -5 0 -7 -14
-5 -31 4 -25 2 -30 -9 -24 -11 6 -11 5 -2 -5 9 -9 9 -19 2 -33 -9 -15 -8 -18
2 -12 8 6 10 4 3 -6 -5 -8 -7 -22 -5 -33 2 -13 -1 -16 -11 -10 -10 6 -10 4 1
-9 11 -14 11 -17 0 -17 -11 0 -11 -2 1 -10 8 -5 10 -10 5 -10 -6 0 -10 -21 -9
-47 0 -27 -4 -54 -10 -62 -9 -12 -8 -13 4 -6 12 6 13 5 3 -6 -7 -7 -13 -17
-13 -22 0 -4 6 -5 13 -1 9 6 9 5 1 -7 -7 -8 -12 -36 -12 -64 0 -27 -1 -54 -2
-60 -1 -5 -1 -23 -1 -40 2 -23 0 -27 -8 -15 -6 8 -11 10 -11 4 0 -6 3 -14 7
-18 12 -11 12 -40 1 -53 -7 -9 -7 -13 2 -13 10 0 10 -3 0 -15 -10 -12 -10 -15
0 -15 9 0 9 -4 2 -13 -7 -8 -7 -18 -2 -27 5 -8 5 -21 0 -30 -6 -11 -5 -22 3
-30 8 -8 8 -11 1 -7 -13 7 -14 -40 -2 -59 4 -6 4 -14 0 -18 -10 -11 -9 -316 1
-316 5 0 5 -6 -1 -13 -7 -8 -7 -18 -2 -27 5 -8 6 -19 2 -25 -3 -5 -7 -25 -7
-43 -1 -25 2 -31 13 -27 12 4 12 2 4 -8 -7 -8 -9 -17 -5 -21 4 -4 1 -11 -7
-16 -9 -6 -10 -10 -3 -10 7 0 11 -21 12 -60 0 -33 2 -64 5 -68 2 -4 1 -14 -4
-22 -5 -8 -3 -19 6 -28 11 -10 12 -18 4 -27 -8 -10 -8 -15 1 -20 8 -6 7 -10
-2 -16 -9 -6 -10 -9 -2 -9 7 0 11 -11 9 -27 -1 -16 2 -34 7 -40 6 -9 5 -13 -3
-13 -10 0 -10 -3 -1 -14 9 -11 9 -16 0 -22 -9 -5 -7 -11 6 -21 11 -7 13 -13 6
-13 -7 0 -9 -5 -5 -12 7 -12 15 -70 14 -115 0 -13 6 -23 13 -23 8 0 7 -4 -3
-10 -8 -5 -10 -10 -4 -10 5 0 10 -10 11 -22 2 -62 8 -98 16 -98 5 0 4 -6 -2
-14 -10 -11 -8 -17 6 -25 10 -6 13 -11 7 -11 -9 0 -12 -38 -4 -47 2 -2 3 -6 4
-10 1 -5 5 -14 9 -21 5 -7 3 -12 -4 -12 -10 0 -10 -3 -1 -12 7 -7 12 -23 12
-36 0 -13 5 -33 11 -44 7 -12 7 -18 1 -14 -11 6 2 -41 20 -78 6 -12 6 -16 -1
-12 -6 4 -4 -9 4 -29 12 -27 12 -35 3 -35 -10 0 -9 -3 1 -9 8 -5 11 -16 8 -24
-3 -8 0 -20 6 -26 6 -6 8 -11 4 -11 -4 0 -1 -14 8 -30 12 -23 12 -30 3 -30 -8
0 -9 -3 -3 -8 9 -7 12 -14 20 -52 2 -8 4 -15 5 -15 2 0 6 -23 13 -63 2 -9 6
-23 11 -30 8 -13 -1 -52 -12 -50 -13 2 -102 -35 -102 -43 0 -7 -50 -23 -62
-21 -5 1 -8 -2 -8 -7 0 -5 -13 -14 -30 -21 -16 -7 -30 -16 -30 -21 0 -5 -7 -6
-15 -3 -8 4 -17 -1 -21 -10 -5 -13 -9 -14 -20 -5 -12 10 -13 9 -8 -5 4 -11 1
-16 -14 -16 -11 0 -27 -10 -36 -23 -9 -12 -14 -15 -11 -7 4 8 -1 6 -10 -5 -9
-11 -19 -20 -23 -19 -14 2 -62 -22 -56 -28 3 -4 -4 -9 -15 -13 -12 -3 -21 -11
-21 -17 0 -6 -3 -9 -6 -5 -4 3 -13 -1 -21 -9 -8 -8 -19 -12 -24 -8 -5 3 -8 0
-7 -8 2 -7 -3 -12 -9 -11 -7 2 -13 -1 -13 -6 0 -5 -14 -14 -30 -20 -17 -5 -28
-7 -26 -2 3 4 -8 8 -24 8 -18 0 -27 -4 -23 -11 5 -8 3 -8 -8 0 -8 6 -29 10
-46 8 -22 -1 -31 2 -26 10 5 8 3 8 -8 0 -8 -6 -33 -10 -56 -9 -25 1 -43 -3
-43 -9 0 -6 -5 -4 -10 4 -6 10 -10 11 -10 3 0 -7 -5 -13 -11 -13 -5 0 -8 4 -5
8 2 4 -4 8 -14 8 -10 0 -16 -4 -14 -8 3 -4 -2 -8 -11 -8 -10 0 -13 5 -9 12 6
10 5 10 -8 1 -8 -7 -18 -10 -21 -6 -4 3 -7 1 -7 -7 0 -9 -3 -10 -13 -1 -9 7
-17 7 -23 1 -5 -5 -34 -12 -64 -14 -30 -2 -57 -5 -60 -6 -3 -1 -8 -2 -12 -1
-5 0 -8 -2 -8 -7 0 -4 -10 -8 -22 -8 -39 -3 -92 -15 -103 -24 -6 -5 -23 -7
-37 -6 -16 2 -26 -2 -25 -8 1 -6 -6 -10 -15 -8 -10 2 -18 -3 -18 -10 0 -9 -3
-9 -10 2 -7 11 -10 11 -10 2 0 -7 -4 -10 -10 -7 -6 3 -10 1 -10 -6 0 -6 -8 -9
-20 -6 -11 3 -18 1 -14 -4 3 -5 0 -9 -5 -9 -22 0 -26 -2 -41 -14 -8 -8 -25
-12 -37 -11 -12 1 -20 -2 -17 -6 3 -5 -7 -11 -21 -15 -14 -3 -25 -10 -25 -15
0 -5 -3 -8 -8 -7 -11 4 -72 -26 -72 -35 0 -5 -5 -5 -10 -2 -6 3 -10 2 -10 -4
0 -5 -10 -13 -22 -17 -13 -4 -25 -10 -28 -15 -3 -4 -12 -9 -20 -11 -8 -2 -23
-12 -33 -23 -11 -12 -16 -14 -12 -5 3 8 -2 5 -11 -8 -9 -12 -23 -22 -30 -22
-8 0 -14 -4 -14 -8 0 -5 -15 -17 -34 -27 -19 -11 -34 -21 -33 -24 1 -3 -2 -8
-7 -11 -6 -3 -30 -24 -54 -47 -25 -24 -48 -43 -53 -43 -5 0 -9 -5 -9 -11 0 -6
-15 -25 -34 -43 -43 -40 -126 -143 -126 -156 0 -5 -5 -10 -11 -10 -5 0 -8 -4
-5 -8 3 -5 -3 -14 -14 -22 -10 -7 -16 -20 -12 -28 3 -10 1 -13 -5 -9 -7 4 -16
-7 -23 -28 -6 -19 -16 -35 -21 -35 -6 0 -7 -5 -4 -10 3 -6 1 -10 -5 -10 -6 0
-8 -4 -5 -10 3 -5 1 -10 -5 -10 -6 0 -9 -4 -5 -9 3 -5 -1 -15 -8 -23 -8 -7
-12 -19 -9 -26 2 -6 -2 -12 -8 -12 -7 0 -10 -6 -7 -14 3 -8 2 -16 -4 -18 -5
-2 -11 -14 -14 -27 -2 -12 -9 -29 -15 -36 -6 -7 -10 -17 -9 -21 1 -5 0 -11 -1
-14 -6 -17 -12 -49 -14 -72 0 -14 -5 -24 -10 -20 -5 3 -7 -2 -3 -11 4 -10 1
-17 -5 -17 -9 0 -9 -3 -1 -11 9 -9 8 -17 -2 -33 -9 -13 -11 -27 -6 -35 5 -8 7
-21 3 -29 -4 -11 -2 -13 9 -7 12 8 12 6 0 -8 -11 -13 -11 -20 -1 -32 6 -8 9
-19 5 -25 -3 -5 -1 -10 4 -10 6 0 11 -6 11 -14 0 -7 7 -19 15 -26 9 -7 13 -20
10 -29 -3 -8 -3 -12 1 -8 4 4 17 -7 29 -23 12 -16 25 -27 28 -23 4 3 7 -1 7
-11 0 -9 5 -14 10 -11 6 3 10 1 10 -5 0 -6 4 -9 9 -6 5 4 11 1 13 -6 2 -6 15
-13 28 -15 13 -2 27 -7 30 -11 5 -9 36 -14 88 -15 17 -1 32 -6 32 -12 0 -5 4
-4 9 4 8 13 12 13 27 0 10 -8 15 -9 11 -2 -5 8 5 12 34 11 27 0 37 -3 28 -9
-9 -6 -10 -9 -2 -9 6 0 14 4 17 9 3 4 39 7 81 6 41 -2 73 1 70 5 -3 4 4 6 15
3 11 -3 18 -9 15 -12 -2 -4 2 -8 10 -8 8 0 12 3 10 7 -3 4 40 6 95 4 55 -1 98
1 95 6 -3 4 4 6 15 3 11 -3 17 -9 14 -14 -3 -5 0 -9 5 -9 6 0 11 4 11 9 0 6
26 8 61 5 35 -2 58 0 55 5 -3 5 3 7 14 4 11 -3 18 -9 15 -12 -2 -4 2 -8 10 -8
8 0 12 4 9 8 -2 4 23 6 56 3 36 -2 59 0 56 5 -3 5 3 7 14 4 11 -3 17 -9 14
-14 -3 -5 0 -9 5 -9 6 0 11 4 11 9 0 6 26 8 61 5 35 -2 58 0 55 5 -3 5 3 7 14
4 11 -3 18 -9 15 -12 -2 -4 2 -8 10 -8 8 0 12 4 9 8 -2 4 23 6 56 3 36 -2 59
0 56 5 -3 5 3 7 14 4 11 -3 17 -9 14 -14 -3 -5 0 -9 5 -9 6 0 11 4 11 9 0 6
26 8 61 5 35 -2 58 0 55 5 -3 5 3 7 14 4 11 -3 18 -9 15 -12 -2 -4 2 -8 10 -8
8 0 12 4 9 8 -2 4 23 6 56 3 36 -2 59 0 56 5 -3 5 3 7 14 4 11 -3 17 -9 14
-14 -3 -5 0 -9 5 -9 6 0 11 4 11 9 0 6 26 8 61 5 35 -2 58 0 55 5 -3 5 3 7 14
4 11 -3 18 -9 15 -12 -2 -4 2 -8 10 -8 8 0 12 4 10 8 -3 3 40 5 95 4 55 -1 98
1 95 5 -3 5 4 6 15 3 11 -3 18 -9 15 -12 -2 -4 2 -8 10 -8 8 0 12 3 10 7 -2 4
32 6 75 6 46 -1 80 -5 80 -11 0 -5 4 -4 9 4 8 13 12 13 27 0 10 -8 15 -9 11
-2 -5 8 5 12 34 11 27 0 37 -3 28 -9 -9 -6 -10 -9 -2 -9 6 0 14 4 17 9 3 4 39
7 81 6 41 -2 73 1 70 5 -3 4 4 6 15 3 11 -3 18 -9 15 -12 -2 -4 2 -8 10 -8 8
0 12 3 10 7 -2 4 32 6 75 6 46 -1 80 -5 80 -11 0 -5 4 -4 9 4 8 13 12 13 27 0
10 -8 15 -9 11 -2 -5 8 5 12 34 11 27 0 37 -3 28 -9 -9 -6 -10 -9 -2 -9 6 0
14 4 17 9 3 4 39 7 81 6 41 -2 73 1 70 5 -3 4 4 6 15 3 11 -3 18 -9 15 -12 -2
-4 2 -8 10 -8 8 0 12 3 10 7 -3 4 40 6 95 4 55 -1 98 1 95 6 -3 4 4 6 15 3 11
-3 17 -9 14 -14 -3 -5 0 -9 5 -9 6 0 11 4 11 9 0 6 26 8 61 5 35 -2 58 0 55 5
-3 5 3 7 14 4 11 -3 18 -9 15 -12 -2 -4 2 -8 10 -8 8 0 12 4 9 8 -2 4 23 6 56
3 36 -2 59 0 56 5 -3 5 3 7 14 4 11 -3 17 -9 14 -14 -3 -5 0 -9 5 -9 6 0 11 4
11 9 0 6 26 8 61 5 35 -2 58 0 55 5 -3 5 3 7 14 4 11 -3 18 -9 15 -12 -2 -4 2
-8 10 -8 8 0 12 4 9 8 -2 4 23 6 56 3 36 -2 59 0 56 5 -3 5 3 7 14 4 11 -3 17
-9 14 -14 -3 -5 0 -9 5 -9 6 0 11 4 11 9 0 6 26 8 61 5 35 -2 58 0 55 5 -3 5
3 7 14 4 11 -3 18 -9 15 -12 -2 -4 2 -8 10 -8 8 0 12 4 9 8 -2 4 23 6 56 3 36
-2 59 0 56 5 -3 5 3 7 14 4 11 -3 17 -9 14 -14 -3 -5 0 -9 5 -9 6 0 11 4 11 9
0 6 26 8 61 5 35 -2 58 0 55 5 -3 5 3 7 14 4 11 -3 18 -9 15 -12 -2 -4 2 -8
10 -8 8 0 12 4 10 8 -3 3 40 5 95 4 55 -1 98 1 95 5 -3 5 4 6 15 3 11 -3 18
-9 15 -12 -2 -4 2 -8 10 -8 8 0 12 3 10 7 -2 4 32 6 75 6 46 -1 80 -5 80 -11
0 -5 4 -4 9 4 8 13 12 13 27 0 10 -8 15 -9 11 -2 -5 8 5 12 34 11 27 0 37 -3
28 -9 -9 -6 -10 -9 -2 -9 6 0 14 4 17 9 3 4 39 7 81 6 41 -2 73 1 70 5 -3 4 4
6 15 3 11 -3 18 -9 15 -12 -2 -4 2 -8 10 -8 8 0 12 3 10 7 -2 4 32 6 75 6 46
-1 80 -5 80 -11 0 -5 4 -4 9 4 8 13 12 13 27 0 10 -8 15 -9 11 -2 -5 8 5 12
34 11 27 0 37 -3 28 -9 -9 -6 -10 -9 -2 -9 6 0 14 4 17 9 3 4 39 7 81 6 41 -2
73 1 70 5 -3 4 4 6 15 3 11 -3 18 -9 15 -12 -2 -4 2 -8 10 -8 8 0 12 3 10 7
-3 4 40 6 95 4 55 -1 98 1 95 6 -3 4 4 6 15 3 11 -3 17 -9 14 -14 -3 -5 0 -9
5 -9 6 0 11 4 11 9 0 6 26 8 61 5 35 -2 58 0 55 5 -3 5 3 7 14 4 11 -3 18 -9
15 -12 -2 -4 2 -8 10 -8 8 0 12 4 9 8 -2 4 23 6 56 3 36 -2 59 0 56 5 -3 5 3
7 14 4 11 -3 17 -9 14 -14 -3 -5 0 -9 5 -9 6 0 11 4 11 9 0 6 26 8 61 5 35 -2
58 0 55 5 -3 5 3 7 14 4 11 -3 18 -9 15 -12 -2 -4 2 -8 10 -8 8 0 12 4 9 8 -2
4 23 6 56 3 36 -2 59 0 56 5 -3 5 3 7 14 4 11 -3 17 -9 14 -14 -3 -5 2 -6 10
-3 9 3 16 11 16 18 0 6 5 4 10 -4 6 -10 13 -11 18 -5 4 6 21 10 39 10 18 -1
29 3 26 9 -4 5 1 7 10 3 10 -3 17 -2 17 4 0 6 5 7 12 3 6 -4 17 1 25 11 7 11
13 15 13 11 0 -5 7 -3 15 4 8 7 15 9 15 4 0 -4 7 1 15 12 8 10 15 15 15 10 0
-5 9 3 21 18 11 14 26 23 32 19 7 -3 9 -3 5 2 -4 4 4 16 17 27 25 20 63 84 42
71 -7 -4 -6 0 2 10 7 9 17 15 21 12 5 -3 6 4 3 15 -3 11 -1 20 4 20 5 0 10 6
11 13 1 6 3 28 6 49 2 20 6 40 9 45 3 5 2 15 -3 23 -5 8 -5 22 1 32 5 10 6 18
1 18 -5 0 -8 11 -7 25 2 14 -1 27 -5 30 -5 3 -7 12 -3 20 3 8 1 15 -5 15 -5 0
-12 9 -15 20 -3 11 0 20 6 20 6 0 2 6 -8 14 -11 8 -16 20 -12 29 3 9 0 22 -7
29 -7 8 -12 21 -10 31 1 10 -2 14 -9 10 -6 -4 -8 0 -4 10 3 9 1 17 -4 19 -5 2
-11 13 -12 26 0 12 -4 22 -7 22 -8 0 -35 67 -29 72 2 2 -6 14 -18 28 -13 13
-23 30 -23 37 0 8 -9 23 -20 35 -11 12 -20 28 -20 35 0 7 -6 13 -12 13 -10 0
-9 3 1 9 11 7 9 10 -8 16 -12 3 -19 11 -16 16 4 5 1 9 -5 9 -6 0 -9 3 -7 8 7
10 -19 32 -27 24 -4 -3 -4 1 0 11 4 11 0 19 -10 23 -9 3 -16 10 -16 16 0 14
-27 38 -34 31 -3 -4 -6 2 -6 13 -1 13 -7 7 -21 -19 -11 -21 -17 -42 -14 -47 4
-6 -1 -13 -10 -16 -9 -4 -14 -13 -11 -20 3 -8 1 -14 -5 -14 -6 0 -7 -4 -4 -10
3 -5 1 -10 -5 -10 -7 0 -10 -6 -7 -12 2 -7 -3 -18 -10 -23 -8 -6 -15 -18 -16
-27 -2 -9 -8 -22 -14 -29 -12 -16 -23 -69 -14 -66 3 1 7 -2 8 -7 0 -5 8 -13
17 -18 9 -5 14 -13 12 -17 -3 -4 4 -17 14 -29 11 -12 20 -28 20 -35 0 -8 6
-20 14 -27 8 -6 13 -17 10 -25 -3 -7 3 -19 13 -26 10 -8 20 -25 22 -39 1 -14
7 -28 13 -31 5 -3 11 -19 12 -35 2 -16 8 -28 14 -27 6 1 9 -5 7 -15 -1 -9 3
-20 9 -24 7 -5 7 -8 -2 -8 -10 0 -10 -3 1 -15 9 -8 14 -23 13 -32 -2 -10 1
-21 6 -24 7 -4 6 -14 0 -26 -8 -14 -8 -23 -1 -30 13 -13 -9 -53 -29 -53 -7 0
-11 -3 -9 -7 3 -5 -1 -14 -9 -21 -8 -7 -14 -10 -14 -6 0 3 -7 1 -16 -7 -8 -7
-30 -13 -47 -14 -18 0 -38 -4 -46 -9 -8 -5 -17 -3 -22 5 -8 12 -11 12 -19 -1
-9 -13 -10 -13 -10 0 0 13 -1 13 -10 0 -9 -13 -11 -13 -20 0 -9 13 -10 13 -10
0 0 -13 -1 -13 -10 0 -9 13 -11 13 -20 0 -9 -13 -11 -13 -20 0 -9 13 -10 13
-10 0 0 -13 -1 -13 -10 0 -9 13 -11 13 -20 0 -9 -13 -11 -13 -20 0 -9 13 -10
13 -10 0 0 -13 -1 -13 -10 0 -9 13 -11 13 -20 0 -9 -13 -11 -13 -20 0 -9 13
-10 13 -10 0 0 -13 -1 -13 -10 0 -9 13 -11 13 -20 0 -9 -13 -11 -13 -20 0 -9
13 -10 13 -10 0 0 -13 -1 -13 -10 0 -9 13 -11 13 -20 0 -9 -13 -10 -13 -10 0
0 13 -1 13 -10 0 -9 -13 -11 -13 -20 0 -9 13 -10 13 -10 0 0 -13 -1 -13 -10 0
-9 13 -11 13 -20 0 -9 -13 -11 -13 -20 0 -9 13 -10 13 -10 0 0 -13 -1 -13 -10
0 -9 13 -11 13 -20 0 -9 -13 -11 -13 -20 0 -9 13 -10 13 -10 0 0 -13 -1 -13
-10 0 -9 13 -11 13 -20 0 -9 -13 -11 -13 -20 0 -9 13 -10 13 -10 0 0 -13 -1
-13 -10 0 -9 13 -11 13 -20 0 -9 -13 -11 -13 -20 0 -9 13 -10 13 -10 0 0 -13
-1 -13 -10 0 -9 13 -11 13 -20 0 -9 -13 -11 -13 -20 0 -9 13 -10 13 -10 0 0
-13 -1 -13 -10 0 -9 13 -11 13 -20 0 -9 -13 -11 -13 -20 0 -9 13 -10 13 -10 0
0 -13 -1 -13 -10 0 -9 13 -11 13 -20 0 -9 -13 -11 -13 -20 0 -9 13 -10 13 -10
0 0 -13 -1 -13 -10 0 -9 13 -10 13 -10 0 0 -13 -1 -13 -10 0 -9 13 -10 13 -10
0 0 -13 -1 -13 -10 0 -9 13 -11 13 -20 0 -9 -13 -11 -13 -20 0 -9 13 -10 13
-10 0 0 -13 -1 -13 -10 0 -9 13 -11 13 -20 0 -9 -13 -11 -13 -20 0 -9 13 -10
13 -10 0 0 -13 -1 -13 -10 0 -9 13 -10 13 -10 0 0 -13 -1 -13 -10 0 -9 13 -10
13 -10 0 0 -13 -1 -13 -10 0 -9 13 -10 13 -10 0 0 -13 -1 -13 -10 0 -9 13 -10
13 -10 0 0 -13 -1 -13 -10 0 -9 13 -10 13 -10 0 0 -13 -1 -13 -10 0 -9 13 -10
13 -10 0 0 -13 -1 -13 -10 0 -9 13 -10 13 -10 0 0 -13 -1 -13 -10 0 -9 13 -10
13 -10 0 0 -13 -1 -13 -10 0 -9 13 -11 13 -20 0 -9 -13 -11 -13 -20 0 -9 13
-10 13 -10 0 0 -13 -1 -13 -10 0 -9 13 -11 13 -20 0 -9 -13 -11 -13 -20 0 -9
13 -10 13 -10 0 0 -13 -1 -13 -10 0 -9 13 -11 13 -20 0 -9 -13 -11 -13 -20 0
-9 13 -10 13 -10 0 0 -13 -1 -13 -10 0 -9 13 -11 13 -20 0 -9 -13 -11 -13 -20
0 -9 13 -10 13 -10 0 0 -13 -1 -13 -10 0 -9 13 -11 13 -20 0 -9 -13 -11 -13
-20 0 -9 13 -10 13 -10 0 0 -13 -1 -13 -10 0 -9 13 -11 13 -20 0 -9 -13 -11
-13 -20 0 -9 13 -10 13 -10 0 0 -13 -1 -13 -10 0 -9 13 -10 13 -10 0 0 -13 -1
-13 -10 0 -9 13 -10 13 -10 0 0 -13 -1 -13 -10 0 -9 13 -10 13 -10 0 0 -13 -1
-13 -10 0 -9 13 -10 13 -10 0 0 -13 -1 -13 -10 0 -9 13 -10 13 -10 0 0 -13 -1
-13 -10 0 -9 13 -10 13 -10 0 0 -13 -1 -13 -10 0 -9 13 -10 13 -10 0 0 -13 -1
-13 -10 0 -9 13 -10 13 -10 0 0 -13 -1 -13 -10 0 -9 13 -11 13 -20 0 -9 -13
-11 -13 -20 0 -9 13 -10 13 -10 0 0 -13 -1 -13 -10 0 -9 13 -11 13 -20 0 -9
-13 -11 -13 -20 0 -9 13 -10 13 -10 0 0 -13 -1 -13 -10 0 -9 13 -10 13 -10 0
0 -13 -1 -13 -10 0 -9 13 -10 13 -10 0 0 -13 -1 -13 -10 0 -9 13 -11 13 -20 0
-9 -13 -11 -13 -20 0 -9 13 -10 13 -10 0 0 -13 -1 -13 -10 0 -9 13 -11 13 -20
0 -9 -13 -11 -13 -20 0 -9 13 -10 13 -10 0 0 -13 -1 -13 -10 0 -9 13 -11 13
-20 0 -9 -13 -11 -13 -20 0 -9 13 -10 13 -10 0 0 -13 -1 -13 -10 0 -9 13 -11
13 -20 0 -9 -13 -11 -13 -20 0 -9 13 -10 13 -10 0 0 -13 -1 -13 -10 0 -9 13
-11 13 -20 0 -9 -13 -11 -13 -20 0 -9 13 -10 13 -10 0 0 -13 -1 -13 -10 0 -9
13 -11 13 -20 0 -9 -13 -11 -13 -20 0 -9 13 -10 13 -10 0 0 -13 -1 -13 -10 0
-9 13 -11 13 -20 0 -9 -13 -11 -13 -20 0 -9 13 -10 13 -10 0 0 -13 -1 -13 -10
0 -9 13 -11 13 -20 0 -9 -13 -10 -13 -10 0 0 13 -1 13 -10 0 -9 -13 -11 -13
-20 0 -9 13 -10 13 -10 0 0 -13 -1 -13 -10 0 -9 13 -11 13 -20 0 -9 -13 -11
-13 -20 0 -9 13 -10 13 -10 0 0 -13 -1 -13 -10 0 -9 13 -11 13 -20 0 -9 -13
-11 -13 -20 0 -9 13 -10 13 -10 0 0 -13 -1 -13 -10 0 -9 13 -11 13 -20 0 -9
-13 -11 -13 -20 0 -9 13 -10 13 -10 0 0 -13 -1 -13 -10 0 -9 13 -11 13 -20 0
-9 -13 -11 -13 -20 0 -9 13 -10 13 -10 0 0 -13 -1 -13 -10 0 -9 13 -11 13 -20
0 -9 -13 -10 -13 -10 0 0 13 -1 13 -10 0 -9 -13 -11 -13 -20 0 -9 13 -10 13
-10 0 0 -13 -1 -13 -10 0 -9 13 -11 13 -20 0 -9 -13 -11 -13 -20 0 -9 13 -10
13 -10 0 0 -13 -1 -13 -10 0 -9 13 -11 13 -20 0 -9 -13 -11 -13 -20 0 -9 13
-10 13 -10 0 0 -13 -1 -13 -10 0 -9 13 -11 13 -20 0 -9 -13 -11 -13 -20 0 -9
13 -10 13 -10 0 0 -13 -1 -13 -10 0 -9 13 -11 13 -20 0 -9 -13 -11 -13 -20 0
-9 13 -10 13 -10 0 0 -13 -1 -13 -10 0 -9 13 -11 13 -20 0 -9 -13 -10 -13 -10
0 0 13 -1 13 -10 0 -9 -13 -11 -13 -20 0 -9 13 -10 13 -10 0 0 -13 -1 -13 -10
0 -9 13 -11 13 -20 0 -9 -13 -11 -13 -20 0 -9 13 -10 13 -10 0 0 -13 -1 -13
-10 0 -9 13 -11 13 -20 0 -9 -13 -11 -13 -20 0 -9 13 -10 13 -10 0 0 -13 -1
-13 -10 0 -9 13 -11 13 -20 0 -8 -12 -11 -13 -19 -1 -7 11 -9 11 -14 0 -5 -12
-6 -12 -6 0 -1 11 -4 11 -18 0 -13 -11 -17 -11 -20 -1 -3 6 -9 10 -14 6 -13
-8 -11 10 4 25 10 12 9 13 -7 7 -14 -5 -16 -3 -9 6 12 16 7 71 -8 100 -8 15
-8 19 0 14 8 -5 8 -1 2 16 -26 64 -28 70 -30 96 -1 8 -6 10 -13 6 -10 -5 -10
-4 -1 6 9 10 8 18 -4 36 -8 13 -12 24 -7 24 4 0 -1 7 -12 16 -10 8 -12 13 -4
9 10 -4 10 -2 -2 8 -13 10 -15 16 -6 25 8 8 8 12 2 12 -6 0 -22 21 -35 48 -13
26 -31 53 -39 60 -8 8 -9 11 -3 7 9 -4 11 -1 7 9 -3 9 -11 13 -16 10 -6 -4 -9
-1 -6 6 2 8 -3 22 -11 31 -30 34 -42 49 -36 49 3 0 -3 9 -12 19 -35 38 -42 49
-36 55 4 3 -1 6 -10 6 -10 0 -17 5 -17 11 0 16 -26 39 -35 31 -5 -4 -5 -2 -2
4 4 7 -6 22 -22 35 -16 13 -27 27 -25 31 3 4 1 8 -4 8 -5 0 -25 16 -45 35 -21
20 -37 34 -37 31 0 -3 -19 14 -42 37 -23 23 -43 40 -44 37 -1 -3 -14 5 -28 17
-14 13 -26 20 -26 17 0 -3 -7 1 -15 8 -25 23 -40 34 -50 39 -5 2 -9 8 -7 13 2
5 -4 6 -12 3 -8 -3 -20 1 -26 9 -7 8 -19 14 -26 14 -8 0 -14 5 -14 11 0 5 -4
7 -10 4 -5 -3 -10 -1 -10 6 0 7 -3 10 -6 6 -4 -3 -13 1 -21 9 -8 8 -19 12 -24
9 -5 -4 -9 -1 -9 4 0 6 -9 11 -20 11 -11 0 -20 4 -20 9 0 6 -9 8 -20 6 -11 -2
-19 1 -17 8 1 6 -4 12 -10 13 -7 1 -15 3 -18 4 -3 1 -8 3 -12 5 -21 5 -51 17
-75 30 -19 9 -28 10 -28 3 0 -6 -8 -3 -19 6 -10 9 -24 16 -31 14 -7 -2 -14 2
-17 8 -2 6 30 28 71 49 41 21 78 40 81 44 4 3 10 7 13 7 28 6 52 18 52 26 0 5
5 6 10 3 6 -3 10 -2 10 4 0 6 7 8 15 5 8 -4 15 -1 15 5 0 6 9 11 20 11 11 0
20 5 20 12 0 6 3 9 6 5 4 -3 19 0 34 8 15 8 30 11 34 8 3 -4 6 -2 6 4 0 6 12
14 28 19 34 9 34 9 54 18 9 4 25 9 35 11 10 1 17 8 15 15 -1 6 2 9 8 5 6 -4
18 -1 27 7 14 11 16 11 8 -2 -8 -13 -7 -13 8 -1 10 8 20 11 23 8 4 -3 13 1 22
9 11 11 17 12 22 4 5 -8 9 -7 13 3 3 9 14 14 24 13 10 -2 20 0 23 5 3 4 23 10
45 12 21 2 41 9 43 16 2 6 8 11 13 11 6 0 7 -6 3 -12 -5 -9 -2 -9 9 1 9 7 17
10 17 5 0 -5 5 -1 11 9 8 14 14 16 25 6 9 -7 14 -8 14 -1 0 6 9 9 20 7 11 -2
20 0 20 6 0 5 18 9 41 9 22 0 38 4 35 8 -2 4 11 8 31 9 19 0 39 6 43 13 6 9
11 7 19 -6 10 -19 10 -19 11 0 0 15 3 16 15 6 10 -9 15 -9 15 -1 0 6 17 11 41
11 22 0 38 4 35 8 -3 5 1 9 9 9 8 0 15 -5 15 -10 0 -5 6 -4 14 2 7 6 21 9 30
5 9 -4 16 -1 16 6 0 10 3 10 15 0 9 -7 15 -8 15 -2 0 6 8 9 18 7 9 -1 25 2 34
6 10 6 19 5 23 -1 4 -7 13 -6 26 1 12 6 23 8 26 5 4 -3 12 -1 19 5 8 7 14 7
19 -1 3 -5 11 -10 16 -10 6 0 8 3 6 8 -3 4 27 7 66 6 97 -1 110 3 104 32 -2
13 -1 24 3 24 4 0 6 19 6 43 -1 23 2 47 7 54 4 6 3 14 -3 18 -8 5 -8 11 1 21
6 8 8 14 5 14 -4 0 -2 9 4 20 8 15 8 20 -2 20 -10 0 -10 2 1 9 10 7 10 10 1
16 -17 10 -130 12 -130 2 0 -4 -8 -4 -17 2 -12 6 -21 5 -31 -7 -7 -10 -11 -12
-8 -5 8 15 -36 14 -46 -2 -5 -6 -8 -5 -8 4 0 11 -3 11 -15 1 -12 -10 -15 -10
-15 0 0 8 -4 9 -12 3 -7 -6 -30 -9 -50 -9 -21 1 -38 -3 -38 -9 0 -5 -5 -3 -10
5 -6 10 -10 11 -10 3 0 -8 -11 -11 -30 -9 -17 2 -33 -1 -36 -5 -3 -5 -10 -7
-15 -3 -5 3 -17 0 -26 -8 -12 -9 -15 -9 -9 0 4 7 1 12 -8 12 -9 0 -16 -3 -16
-8 0 -4 -15 -8 -32 -9 -18 -1 -45 -4 -59 -7 -22 -5 -77 -13 -102 -15 -5 -1 -6
-5 -3 -10 3 -4 -6 -6 -20 -3 -16 3 -30 -1 -35 -9 -7 -11 -9 -11 -9 -1 0 9 -5
10 -19 2 -11 -5 -31 -10 -46 -10 -14 0 -24 -4 -21 -8 2 -4 -15 -8 -39 -7 -24
0 -41 -3 -39 -7 5 -7 -14 -12 -43 -11 -7 1 -13 -2 -13 -6 0 -8 -17 -11 -57
-12 -13 -1 -20 -6 -16 -12 4 -6 -2 -8 -15 -5 -12 4 -22 3 -22 -1 0 -4 -6 -8
-12 -8 -25 -1 -43 -8 -56 -23 -8 -8 -11 -9 -7 -2 3 6 1 12 -4 12 -6 0 -11 -4
-11 -10 0 -12 -45 -6 -46 6 0 5 -4 27 -9 49 -5 22 -8 44 -7 49 2 4 -2 14 -9
22 -6 7 -8 18 -4 24 3 5 2 10 -2 10 -8 0 -13 19 -16 63 -1 9 -5 17 -9 17 -4 0
-5 7 -2 15 4 8 0 23 -7 32 -12 14 -12 16 1 8 12 -7 13 -6 3 6 -7 8 -14 32 -16
52 -2 20 -7 40 -10 44 -4 3 -7 20 -7 38 0 17 -6 37 -12 44 -11 11 -10 12 1 6
10 -6 12 -4 5 6 -9 15 -12 29 -16 72 -1 15 -6 27 -11 27 -5 0 -4 7 3 15 7 8 8
15 3 15 -5 0 -9 8 -10 18 -2 46 -7 78 -13 87 -3 6 -6 17 -5 25 1 8 -2 25 -7
38 -5 15 -4 21 2 17 6 -3 10 -1 10 4 0 6 -4 11 -8 11 -5 0 -8 16 -7 36 0 19
-3 37 -7 40 -3 2 -5 13 -3 24 2 11 1 20 -3 20 -4 0 -7 30 -7 66 0 36 -4 68 -8
71 -5 3 -3 9 4 14 12 7 12 9 0 9 -11 0 -11 3 0 17 12 14 12 16 0 8 -11 -6 -13
-4 -8 8 3 9 1 18 -6 21 -9 3 -9 5 0 5 7 1 10 7 8 14 -3 6 -6 39 -8 72 -2 33
-7 67 -12 74 -5 10 -4 12 3 7 14 -8 14 0 3 29 -5 11 -4 25 1 33 7 8 7 12 0 12
-11 0 -11 18 1 37 4 6 3 14 -3 18 -5 3 -10 11 -10 16 0 6 5 7 12 3 7 -5 8 -3
2 7 -14 23 -15 52 -2 61 10 6 10 8 1 8 -7 0 -13 11 -13 25 0 14 6 25 13 25 8
0 8 3 1 8 -16 10 -17 185 -1 176 7 -4 3 3 -8 16 -11 13 -14 20 -6 15 10 -6 12
-2 6 14 -4 14 -2 21 7 21 8 0 9 3 3 8 -11 8 -13 67 -2 78 10 11 9 24 -4 24 -5
0 -7 -5 -3 -12 4 -7 3 -8 -5 -4 -9 6 -9 11 1 23 7 9 12 18 11 20 -2 1 -3 4 -2
6 6 19 3 47 -5 47 -6 0 -5 4 3 9 9 6 10 10 2 16 -8 4 -9 11 -3 18 6 7 9 28 9
47 -1 20 2 43 5 52 4 9 2 19 -5 22 -9 3 -9 5 0 5 7 1 10 8 7 16 -4 9 0 15 7
15 11 0 11 3 -1 10 -13 9 -13 11 0 20 8 5 10 10 4 10 -11 0 -16 30 -5 30 3 0
7 24 8 53 1 48 9 125 13 137 1 3 2 17 2 33 1 32 25 37 50 10 26 -28 46 -43 58
-43 6 0 8 -4 5 -10 -3 -5 0 -10 8 -10 8 0 18 -7 21 -16 4 -9 9 -14 12 -11 3 3
16 -4 29 -16 39 -38 65 -57 78 -57 8 0 7 -4 -3 -10 -12 -8 -11 -10 8 -10 12 0
22 -5 22 -11 0 -5 5 -7 10 -4 6 3 10 0 10 -8 0 -7 12 -19 26 -25 14 -7 22 -17
19 -22 -3 -5 0 -7 8 -4 7 2 22 -7 33 -21 10 -14 23 -25 29 -25 5 0 21 -12 34
-25 12 -14 28 -22 35 -18 6 3 8 3 4 -2 -7 -8 15 -35 29 -35 5 0 15 -9 23 -20
8 -11 19 -20 25 -20 6 0 17 -9 25 -20 8 -11 19 -20 25 -20 6 0 17 -9 25 -20 8
-11 19 -20 25 -20 6 0 17 -9 25 -20 8 -11 19 -20 25 -20 6 0 16 -9 23 -20 7
-11 17 -20 23 -20 7 0 20 -10 30 -22 11 -11 19 -18 19 -14 0 4 14 -7 30 -24
17 -17 30 -27 30 -23 0 4 14 -7 30 -26 17 -18 30 -30 30 -26 0 4 11 -4 25 -19
13 -14 27 -26 31 -26 4 0 13 -8 21 -17 9 -11 12 -12 7 -3 -4 9 2 7 13 -5 11
-11 18 -23 16 -28 -2 -4 -1 -7 4 -6 20 3 34 -2 28 -11 -3 -5 -1 -10 5 -10 12
0 24 -9 71 -52 16 -16 33 -28 37 -28 4 0 14 -9 22 -20 8 -11 23 -20 34 -20 11
0 17 -3 13 -6 -7 -8 17 -34 32 -34 6 0 11 -4 11 -10 0 -5 5 -10 11 -10 7 0 22
-10 34 -22 35 -37 63 -57 69 -51 3 4 6 -1 6 -10 0 -10 8 -17 21 -17 11 0 17
-4 14 -10 -3 -5 -1 -10 5 -10 6 0 8 -5 4 -12 -4 -7 -3 -8 5 -4 15 9 43 -12 34
-26 -3 -6 0 -9 8 -6 15 5 29 -6 47 -37 6 -11 12 -14 12 -7 0 8 9 4 24 -10 13
-13 21 -26 19 -30 -2 -4 3 -5 11 -2 9 3 13 10 10 15 -3 5 0 9 6 9 6 0 9 4 6 9
-8 13 4 42 15 35 5 -3 6 2 3 11 -4 8 -1 22 6 30 6 8 9 19 6 24 -4 5 -2 12 4
16 6 4 8 11 5 16 -4 5 -1 9 5 9 7 0 10 7 7 15 -4 8 -2 17 4 20 5 4 7 10 4 15
-3 5 1 15 9 23 8 8 12 17 9 21 -3 3 2 14 11 25 13 14 14 21 5 26 -8 6 -7 10 4
17 9 5 14 15 11 23 -4 8 -1 15 7 15 7 0 9 3 6 7 -4 3 -2 12 4 20 6 7 9 13 5
13 -4 0 3 18 14 41 20 38 20 42 5 65 -8 13 -20 24 -25 24 -6 0 -10 7 -10 16 0
8 -4 13 -9 9 -6 -3 -25 10 -44 29 -19 19 -38 32 -41 29 -3 -4 -6 0 -6 7 0 7
-2 11 -5 8 -3 -3 -21 10 -41 28 -19 19 -39 34 -44 34 -6 0 -10 8 -10 18 0 14
-2 15 -10 2 -8 -13 -10 -12 -10 4 0 11 -3 16 -6 13 -4 -3 -19 7 -35 24 -15 16
-30 30 -33 29 -20 -1 -26 1 -26 10 0 15 -40 52 -40 38 -1 -7 -6 -3 -13 9 -7
12 -16 23 -22 25 -5 2 -9 7 -7 11 1 5 -2 6 -8 2 -5 -3 -13 1 -16 9 -3 9 -10
14 -15 11 -4 -3 -13 4 -19 15 -6 11 -15 18 -20 15 -5 -3 -11 4 -15 15 -3 11
-14 20 -23 20 -9 0 -32 16 -51 35 -18 19 -38 32 -44 28 -6 -3 -7 -1 -3 5 4 8
-3 16 -19 22 -14 5 -23 14 -20 20 3 5 0 10 -8 10 -8 0 -22 9 -32 20 -10 11
-24 20 -32 20 -8 0 -11 5 -8 10 3 6 1 10 -5 10 -6 0 -23 11 -37 24 -15 14 -31
22 -36 19 -6 -3 -7 -1 -3 5 4 6 -4 16 -16 23 -13 7 -31 21 -40 32 -10 11 -18
17 -18 13 0 -4 -10 4 -22 17 -13 13 -31 26 -41 30 -11 4 -15 12 -11 18 4 8 3
9 -4 5 -7 -4 -12 -2 -12 3 0 6 -4 11 -9 11 -6 0 -22 11 -37 25 -15 14 -34 25
-43 25 -14 0 -14 2 -1 10 13 9 13 10 -1 10 -8 0 -25 9 -36 19 -12 11 -24 17
-27 14 -3 -4 -6 1 -6 10 0 8 -9 19 -20 22 -11 4 -17 11 -14 17 4 6 3 8 -3 5
-5 -4 -19 2 -30 13 -12 10 -24 16 -27 13 -3 -4 -6 1 -6 10 0 9 -6 16 -12 15
-7 -2 -12 3 -10 10 1 6 -7 12 -17 12 -11 0 -23 5 -27 12 -5 7 -3 8 6 3 9 -5
11 -4 6 3 -4 7 -14 12 -22 12 -8 0 -14 5 -14 10 0 6 -6 10 -14 10 -8 0 -16 7
-20 15 -3 8 -13 15 -23 15 -16 0 -16 2 -3 11 12 9 10 10 -8 6 -13 -3 -22 -3
-19 -1 10 10 -42 56 -54 48 -8 -4 -9 -3 -5 4 4 7 1 12 -9 12 -11 0 -15 5 -11
16 3 8 2 13 -3 10 -5 -3 -20 5 -34 18 -17 15 -28 20 -31 13 -2 -7 -5 -4 -5 5
-1 9 -16 26 -33 37 -41 25 -84 71 -68 71 6 0 9 4 5 9 -3 5 -1 12 5 16 7 4 6
13 -1 27 -9 16 -8 19 2 13 9 -6 11 -3 6 8 -3 10 -2 17 3 17 5 0 7 9 5 20 -2
11 1 20 6 20 6 0 5 8 -2 21 -8 16 -8 20 1 14 7 -4 11 -1 9 6 -3 27 1 50 9 45
4 -2 9 4 9 15 1 12 -2 17 -10 12 -7 -3 -4 3 6 14 13 15 15 22 6 25 -9 3 -8 8
2 18 8 8 14 30 13 48 0 17 3 32 8 32 4 0 8 14 8 31 0 16 3 28 8 26 4 -3 8 13
9 36 2 22 6 43 11 46 4 3 7 13 7 21 -1 8 1 20 4 25 7 12 8 20 16 65 8 44 36
70 47 43 3 -10 7 -14 7 -10 1 4 13 -4 27 -18 14 -14 30 -23 35 -20 5 4 9 1 9
-5 0 -15 26 -41 34 -33 3 4 6 0 6 -7 0 -7 3 -11 6 -8 3 4 19 -8 36 -25 17 -18
34 -31 39 -30 4 2 11 -7 14 -19 6 -16 9 -18 16 -7 7 11 9 10 9 -5 0 -11 3 -16
6 -13 4 3 19 -7 35 -24 15 -16 29 -29 31 -27 4 4 30 -17 63 -50 14 -14 29 -21
36 -16 7 4 9 3 6 -3 -3 -5 5 -18 19 -28 49 -37 64 -52 56 -60 -4 -5 -1 -5 6
-1 8 5 21 -1 33 -15 10 -12 19 -19 19 -16 0 4 9 -1 19 -10 11 -9 18 -20 15
-25 -3 -5 -1 -7 4 -6 10 3 65 -36 93 -66 10 -10 22 -15 28 -11 7 3 10 3 9 -2
-4 -13 34 -50 59 -57 13 -4 22 -12 20 -19 -1 -6 8 -13 21 -15 12 -2 20 -7 17
-12 -3 -5 5 -14 17 -21 13 -7 30 -20 39 -31 9 -10 21 -18 27 -18 5 0 13 -7 16
-16 4 -9 9 -14 12 -11 8 8 34 -18 34 -33 0 -6 4 -9 8 -6 5 3 18 -4 30 -14 12
-11 26 -20 32 -20 6 0 8 -4 5 -10 -3 -5 1 -10 10 -10 9 0 13 -4 10 -10 -5 -9
7 -14 27 -11 4 0 10 -8 13 -19 4 -11 11 -18 16 -15 5 4 9 1 9 -6 0 -7 3 -10 6
-6 3 3 22 -10 41 -29 19 -19 39 -31 45 -28 7 4 8 2 4 -4 -4 -7 -2 -12 4 -12 6
0 8 -5 4 -12 -4 -6 -3 -8 3 -5 10 6 23 -4 96 -67 9 -9 21 -16 25 -16 4 0 14
-9 22 -19 7 -11 17 -18 22 -15 4 3 8 -2 8 -10 0 -14 12 -20 33 -17 4 0 7 -6 7
-15 0 -8 4 -13 8 -10 5 3 15 -4 22 -15 8 -10 20 -19 28 -19 7 0 10 -5 6 -12
-5 -8 -2 -9 10 -5 10 4 15 3 11 -3 -3 -5 5 -15 19 -22 14 -6 26 -17 26 -25 0
-7 3 -12 8 -12 20 3 32 -3 32 -17 0 -8 4 -13 9 -9 6 3 15 -4 21 -15 6 -11 17
-20 25 -20 8 0 15 -4 15 -8 0 -5 12 -14 26 -20 15 -7 22 -17 18 -24 -4 -7 -3
-8 4 -4 7 4 12 2 12 -4 0 -6 4 -9 8 -6 5 3 15 -4 22 -15 19 -25 30 -24 30 2 0
15 5 19 16 15 8 -3 12 -2 9 4 -3 5 2 24 12 42 9 18 16 36 15 41 -1 4 3 7 8 7
5 0 9 6 7 13 -1 6 4 11 11 10 6 -2 11 0 10 5 -3 14 14 62 23 62 5 0 9 6 9 13
0 7 8 22 18 33 20 21 22 26 22 49 0 8 6 15 14 15 10 0 13 8 11 21 -3 12 -2 19
2 16 3 -4 15 10 26 31 11 20 25 40 31 44 6 4 7 8 2 8 -4 0 4 17 20 37 15 20
21 33 13 28 -12 -8 -12 -6 0 8 7 9 18 14 24 10 5 -3 7 -1 3 5 -3 6 -2 13 4 17
5 3 10 13 10 21 0 9 10 25 23 36 12 11 16 16 8 12 -11 -5 -13 -2 -9 14 4 12 2
22 -3 22 -4 0 -5 7 -2 17 4 11 3 14 -5 9 -8 -5 -12 1 -12 18 0 14 -5 28 -11
31 -6 4 -8 14 -5 22 4 9 2 11 -6 7 -8 -5 -9 -2 -5 9 3 9 2 19 -3 22 -6 4 -10
14 -10 24 0 10 -6 24 -14 31 -8 6 -13 17 -10 25 3 7 1 16 -5 20 -6 3 -11 15
-11 26 0 10 -4 19 -9 19 -5 0 -12 7 -15 16 -4 9 -2 13 5 8 6 -3 3 5 -6 20 -10
14 -14 26 -10 26 3 0 -1 7 -10 16 -9 10 -13 24 -10 38 5 16 4 17 -4 7 -7 -11
-11 -6 -16 22 -4 20 -12 37 -17 37 -5 0 -8 6 -6 12 3 7 -1 19 -9 26 -7 8 -11
18 -8 23 4 5 1 9 -6 9 -8 0 -8 4 1 15 11 13 10 14 -4 9 -14 -5 -17 -2 -16 21
0 3 -7 20 -17 38 -9 17 -16 38 -14 46 1 8 -2 10 -10 6 -7 -5 -10 -3 -7 6 3 8
-1 20 -9 27 -7 8 -11 18 -8 23 4 5 1 9 -4 9 -6 0 -11 9 -11 20 0 11 -4 20 -10
20 -5 0 -10 9 -10 20 0 11 -4 20 -10 20 -5 0 -10 9 -10 20 0 11 -5 20 -11 20
-5 0 -8 4 -5 9 3 5 -4 20 -15 35 -11 14 -17 30 -14 36 3 5 1 10 -4 10 -6 0
-11 6 -11 14 0 7 -7 19 -15 26 -8 7 -12 16 -9 21 3 5 0 9 -6 9 -6 0 -9 4 -5 9
3 6 -3 14 -12 20 -13 8 -14 10 -4 11 11 0 10 4 -4 13 -10 8 -15 19 -12 24 4 6
0 14 -9 17 -8 3 -12 10 -9 16 3 5 1 10 -4 10 -6 0 -11 7 -11 16 0 9 -5 12 -12
8 -7 -4 -10 -4 -6 1 4 4 0 22 -9 39 -10 17 -16 37 -14 45 1 7 -2 10 -8 6 -6
-3 -11 -1 -11 5 0 6 -7 18 -15 27 -8 8 -13 19 -10 24 4 5 1 9 -5 9 -6 0 -8 5
-5 10 3 6 1 10 -5 10 -6 0 -8 5 -5 10 3 6 1 10 -4 10 -6 0 -11 7 -11 15 0 8
-4 15 -10 15 -5 0 -7 7 -3 15 3 10 0 15 -8 13 -8 -2 -13 3 -12 10 2 6 -2 12
-9 12 -6 0 -9 3 -5 6 3 4 -1 13 -9 21 -8 9 -13 22 -10 30 3 8 2 12 -2 10 -4
-3 -16 7 -26 21 -11 14 -14 22 -8 18 8 -5 10 -2 6 8 -3 9 -10 13 -15 10 -5 -3
-9 0 -9 6 0 6 -7 18 -15 27 -8 8 -13 19 -10 24 4 5 1 9 -4 9 -6 0 -11 7 -11
15 0 8 -4 15 -9 15 -5 0 -14 14 -21 30 -7 17 -16 30 -21 30 -5 0 -8 6 -6 13 1
6 -4 11 -10 10 -7 -2 -12 0 -12 5 3 16 -26 72 -38 72 -7 0 -12 3 -11 8 2 13
-15 47 -31 59 -9 7 -12 13 -7 13 5 0 0 8 -11 18 -11 9 -18 23 -15 30 2 7 -2
11 -10 10 -7 -2 -12 2 -11 8 1 7 -8 23 -21 37 -13 14 -22 28 -19 31 3 2 -4 10
-15 17 -12 7 -18 19 -14 27 3 10 1 13 -6 8 -7 -4 -12 -1 -12 8 0 8 -4 16 -9
18 -5 2 -11 9 -13 17 -2 7 -14 26 -28 41 -37 41 -51 60 -46 60 3 0 -6 12 -19
26 -14 15 -22 30 -19 35 3 5 -2 9 -10 9 -8 0 -18 9 -21 21 -4 11 -22 36 -40
55 -18 19 -28 34 -22 35 7 0 2 4 -10 9 -14 6 -23 18 -23 31 0 15 -5 19 -15 15
-8 -3 -14 -2 -14 2 3 20 -3 32 -16 32 -8 0 -15 5 -15 11 0 5 6 7 13 3 6 -4 -5
10 -26 30 -21 20 -35 42 -31 48 4 7 3 8 -4 4 -7 -4 -12 -2 -12 3 0 6 -13 24
-30 39 -16 16 -30 35 -30 42 0 7 -3 10 -6 7 -4 -4 -14 2 -23 12 -9 11 -30 20
-46 22 -17 2 -35 7 -42 12 -6 4 -14 4 -17 -1z m72 -409 c-4 -14 23 -54 33 -48
5 4 9 -1 9 -10 0 -16 12 -34 43 -63 9 -9 17 -21 17 -27 0 -6 9 -17 19 -25 11
-7 18 -17 16 -21 -3 -4 2 -9 10 -13 8 -3 15 -12 15 -21 0 -8 5 -15 10 -15 6 0
10 -10 10 -22 0 -19 2 -20 10 -8 8 13 10 12 10 -2 0 -10 5 -18 11 -18 5 0 7
-4 4 -10 -3 -5 -1 -10 6 -10 7 0 10 -3 7 -6 -4 -3 1 -14 10 -24 33 -36 42 -49
42 -60 0 -6 7 -13 15 -16 8 -4 12 -10 9 -15 -3 -5 0 -9 5 -9 6 0 11 -7 11 -15
0 -8 5 -15 10 -15 6 0 10 -7 10 -15 0 -8 5 -15 10 -15 6 0 10 -7 10 -15 0 -9
7 -18 16 -22 8 -3 13 -11 10 -18 -3 -8 2 -16 10 -19 9 -3 12 -10 9 -16 -3 -5
0 -10 8 -10 8 0 18 -11 21 -25 4 -14 11 -25 16 -25 6 0 10 -7 10 -15 0 -8 5
-15 11 -15 5 0 8 -4 4 -9 -3 -5 5 -20 17 -33 13 -13 24 -30 26 -38 2 -8 7 -17
10 -20 4 -3 13 -17 21 -32 8 -16 18 -28 23 -28 4 0 8 -9 8 -20 0 -11 4 -20 9
-20 5 0 19 -22 32 -50 12 -27 26 -47 31 -44 5 3 8 2 7 -3 -3 -13 25 -73 33
-73 4 0 8 -7 8 -15 0 -8 5 -15 11 -15 5 0 7 -4 4 -10 -3 -5 -2 -10 4 -10 10 0
27 -38 23 -52 -1 -5 3 -8 8 -8 6 0 10 -5 10 -11 0 -6 7 -17 15 -26 8 -8 13
-18 10 -23 -3 -4 2 -13 10 -20 8 -7 15 -19 15 -27 0 -8 5 -11 12 -7 7 5 8 3 3
-6 -4 -7 -2 -15 4 -20 7 -4 13 -16 14 -28 0 -11 4 -19 8 -16 6 4 17 -23 15
-38 -1 -4 8 -14 19 -23 11 -9 14 -14 8 -10 -9 4 -11 1 -7 -9 3 -9 10 -14 15
-11 4 3 11 -10 15 -30 3 -19 10 -35 14 -35 8 0 20 -26 20 -43 -1 -4 6 -15 15
-23 8 -9 13 -19 10 -24 -3 -4 2 -11 11 -14 8 -3 14 -11 12 -18 -1 -7 6 -25 16
-40 10 -15 15 -31 12 -36 -3 -4 3 -14 14 -22 10 -7 16 -19 13 -27 -3 -7 0 -13
7 -13 7 0 10 -7 6 -15 -3 -9 1 -18 9 -21 7 -3 11 -12 8 -20 -3 -8 -1 -14 5
-14 9 0 25 -40 27 -67 0 -6 4 -15 9 -20 5 -5 6 -2 1 6 -6 10 -4 12 4 7 7 -5
10 -14 7 -22 -3 -8 -1 -14 4 -14 4 0 11 -13 15 -29 3 -16 13 -35 21 -41 7 -7
11 -16 9 -20 -3 -5 4 -25 15 -45 12 -21 15 -34 8 -30 -7 4 -6 1 2 -7 9 -7 14
-21 12 -32 -2 -11 0 -16 7 -12 7 5 11 -2 11 -18 0 -13 5 -26 11 -28 6 -2 12
-16 12 -31 1 -15 5 -27 10 -27 4 0 7 -7 7 -16 0 -8 4 -13 9 -10 5 4 7 -2 4
-13 -3 -10 0 -22 6 -25 16 -10 13 -23 -4 -23 -8 0 -15 4 -15 9 0 5 -4 6 -10 3
-5 -3 -10 2 -10 11 0 10 -3 15 -6 11 -4 -3 -12 -1 -19 6 -7 7 -27 23 -45 37
-17 14 -41 33 -52 43 -12 9 -25 17 -30 17 -4 0 -8 7 -8 17 0 9 -3 14 -6 10 -3
-3 -15 3 -27 13 -11 11 -25 17 -30 13 -6 -3 -8 -2 -5 3 3 5 0 15 -8 22 -8 7
-14 9 -14 5 0 -4 -5 0 -11 10 -5 9 -17 17 -25 17 -8 0 -12 5 -9 10 3 6 1 10
-4 10 -6 0 -20 8 -30 18 -33 29 -50 42 -56 42 -4 0 -21 15 -39 33 -42 41 -87
73 -98 69 -5 -1 -7 1 -4 6 2 4 -7 17 -21 28 -15 10 -32 25 -40 32 -7 7 -13 10
-13 5 0 -4 -11 4 -24 20 -13 15 -27 27 -31 27 -8 0 -13 4 -68 54 -15 14 -32
26 -37 26 -6 0 -10 5 -10 10 0 6 -7 10 -15 10 -8 0 -15 8 -15 17 0 9 -3 14 -6
10 -8 -8 -44 25 -38 35 3 4 -2 5 -10 2 -8 -3 -19 3 -26 15 -6 12 -18 21 -26
21 -8 0 -12 5 -9 10 6 9 -8 14 -27 11 -5 0 -8 6 -8 15 0 8 -4 13 -9 9 -6 -3
-15 4 -21 15 -6 11 -15 20 -21 20 -6 0 -24 14 -40 31 -16 17 -29 28 -29 24 0
-5 -11 4 -25 19 -14 15 -25 21 -25 15 0 -7 -6 -4 -14 6 -8 11 -12 24 -9 29 4
5 1 6 -5 2 -7 -4 -12 -2 -12 5 0 7 -3 10 -6 6 -6 -5 -28 10 -66 46 -10 9 -23
17 -29 17 -5 0 -7 5 -4 10 6 9 -8 14 -27 11 -5 0 -8 4 -8 9 0 11 -36 50 -46
50 -3 0 -2 -5 2 -12 4 -7 3 -8 -4 -4 -7 4 -12 14 -12 22 0 8 -7 14 -15 14 -8
0 -19 9 -25 20 -6 11 -17 20 -25 20 -8 0 -20 9 -27 20 -7 11 -21 20 -31 20
-10 0 -15 5 -12 10 3 6 2 10 -3 10 -5 0 -23 14 -40 30 -18 17 -35 30 -39 30
-3 0 -13 7 -22 15 -9 8 -34 31 -56 51 -22 20 -34 33 -27 29 9 -5 11 1 8 20 -4
20 -1 25 9 21 10 -3 12 2 9 20 -3 18 -1 23 7 18 8 -4 9 -3 5 4 -4 7 -4 18 1
25 9 15 14 36 14 60 0 9 4 15 10 12 9 -6 12 3 12 38 0 9 4 17 8 17 5 0 9 9 9
20 0 11 5 20 11 20 5 0 8 4 5 9 -8 13 4 42 15 35 5 -3 6 2 3 11 -4 8 -2 21 3
28 5 6 15 31 23 54 7 23 17 40 23 36 6 -3 7 -1 3 5 -4 7 -1 26 7 44 23 51 30
72 29 81 -1 4 3 7 9 7 6 0 9 6 6 14 -3 8 3 23 14 34 22 24 25 37 7 26 -7 -4
-5 2 5 14 11 11 16 25 13 30 -3 4 4 16 14 25 11 9 17 23 14 32 -4 8 -1 15 6
15 6 0 9 4 5 9 -3 5 0 13 6 16 5 4 8 14 5 22 -3 8 -2 11 3 8 5 -3 13 5 16 17
4 13 14 31 23 41 12 13 12 17 2 17 -9 0 -7 5 6 15 10 8 15 15 10 15 -11 0 24
40 36 40 4 0 7 -3 6 -7z m3602 -7267 c0 -2 -8 -10 -17 -17 -16 -13 -17 -12 -4
4 13 16 21 21 21 13z"/>
<path d="M1052 8033 c-7 -7 -18 -10 -24 -7 -7 4 -8 2 -4 -4 4 -7 1 -12 -7 -12
-14 0 -32 -27 -29 -42 1 -5 -3 -8 -9 -8 -7 0 -9 -10 -7 -25 3 -14 1 -25 -5
-25 -7 0 -7 -4 1 -12 16 -16 15 -31 0 -22 -7 5 2 -9 20 -30 18 -20 29 -42 26
-48 -4 -7 -2 -8 4 -4 7 4 12 3 12 -3 0 -5 9 -13 20 -16 11 -3 20 -11 20 -16 0
-15 26 -39 34 -32 3 4 6 -1 6 -9 0 -9 8 -22 17 -29 14 -12 16 -12 8 0 -5 10
-4 12 3 7 7 -4 12 -12 12 -17 0 -15 26 -39 34 -32 3 4 6 1 6 -5 0 -6 12 -24
27 -39 14 -15 23 -22 19 -15 -4 6 -2 12 3 12 6 0 11 -4 11 -8 0 -9 13 -12 55
-12 42 0 55 3 55 12 0 4 3 7 8 7 19 -3 33 2 27 11 -3 6 1 13 9 16 9 3 16 12
16 20 0 8 4 14 9 14 6 0 8 9 6 20 -2 11 2 20 8 20 7 0 6 4 -3 10 -13 9 -13 10
0 10 12 0 13 2 1 9 -7 5 -11 13 -7 19 3 6 1 14 -5 17 -5 4 -8 14 -5 22 3 8 1
11 -4 8 -6 -3 -10 -1 -10 5 0 6 -5 8 -10 5 -6 -4 -10 -3 -9 2 3 13 -12 43 -23
43 -14 0 -38 27 -31 34 4 3 1 6 -6 6 -12 0 -84 70 -73 71 4 0 -3 4 -16 10 -13
5 -21 13 -17 18 3 5 -4 12 -15 16 -11 3 -20 10 -20 15 0 22 -119 34 -138 13z"/>
<path d="M2818 8027 c-21 -11 -34 -25 -31 -30 4 -6 0 -8 -10 -4 -10 3 -17 2
-17 -4 0 -6 -13 -23 -30 -39 -16 -15 -26 -30 -23 -34 3 -3 0 -6 -7 -6 -7 0
-23 -11 -35 -24 -13 -14 -26 -22 -30 -18 -4 4 -5 2 -3 -4 2 -7 -9 -23 -24 -37
-16 -14 -28 -30 -28 -35 0 -5 -6 -15 -14 -21 -8 -7 -13 -23 -11 -36 1 -14 -2
-25 -7 -25 -5 0 -4 -8 1 -19 6 -10 7 -21 4 -25 -3 -3 -1 -6 5 -6 7 0 12 -4 12
-10 0 -13 59 -70 74 -71 48 -5 72 -3 78 6 5 6 8 4 8 -4 0 -11 6 -8 20 7 12 12
28 22 37 22 9 0 14 2 11 6 -7 6 149 164 163 164 5 0 8 6 7 13 -2 6 2 11 8 10
7 -1 15 9 18 22 4 14 10 25 14 25 4 0 9 16 10 36 2 20 3 39 3 43 2 15 -14 51
-23 51 -6 0 -7 8 -4 17 4 10 4 14 0 10 -4 -4 -23 5 -42 20 -20 15 -32 21 -27
13 6 -10 4 -11 -6 -4 -24 15 -62 11 -101 -9z"/>
<path d="M1984 7622 c4 -7 -7 -9 -34 -8 -22 2 -40 0 -40 -4 0 -3 -12 -6 -27
-5 -16 0 -40 -6 -55 -13 -15 -7 -32 -11 -38 -7 -5 3 -10 -1 -10 -9 0 -9 -6
-13 -14 -10 -7 3 -20 -1 -27 -9 -8 -7 -20 -12 -27 -9 -6 2 -12 -3 -12 -12 0
-9 -3 -15 -7 -15 -22 4 -33 -2 -27 -13 5 -8 0 -7 -11 2 -10 8 -16 10 -12 4 8
-13 -16 -37 -26 -27 -6 6 -11 -11 -8 -29 0 -5 -2 -7 -7 -7 -20 3 -32 -2 -32
-16 0 -8 -7 -15 -16 -15 -8 0 -13 -4 -10 -8 3 -5 -6 -16 -20 -26 -13 -11 -24
-26 -24 -34 0 -8 -8 -21 -17 -29 -12 -10 -13 -12 -3 -8 10 4 9 2 -2 -8 -10 -8
-15 -17 -11 -20 3 -4 1 -7 -5 -7 -7 0 -12 -9 -12 -19 0 -11 -5 -23 -11 -26 -5
-4 -8 -12 -6 -18 2 -7 -3 -21 -12 -31 -13 -16 -13 -18 -1 -11 12 6 12 5 3 -5
-6 -7 -9 -19 -6 -26 3 -8 0 -14 -7 -14 -6 0 -8 -4 -5 -10 3 -5 1 -19 -5 -30
-6 -11 -7 -20 -3 -20 12 0 10 -100 -2 -101 -5 0 -1 -4 10 -9 11 -5 15 -9 9 -9
-8 -1 -9 -12 -4 -35 4 -19 5 -37 2 -40 -3 -4 0 -6 6 -6 7 0 12 -13 12 -30 0
-16 5 -30 10 -30 6 0 10 -8 8 -17 -2 -10 2 -17 9 -16 7 2 10 -3 7 -11 -3 -8 0
-17 5 -21 6 -3 9 -11 6 -16 -4 -5 1 -12 9 -15 9 -3 14 -10 11 -14 -3 -4 2 -11
11 -14 8 -3 13 -10 10 -14 -3 -5 8 -19 25 -32 16 -14 29 -30 29 -37 0 -7 5
-13 10 -13 6 0 20 -11 32 -25 11 -13 25 -22 30 -19 4 3 8 1 8 -5 0 -5 9 -13
20 -16 12 -4 17 -11 14 -18 -4 -7 -4 -9 0 -5 4 3 19 0 33 -7 15 -8 31 -11 36
-8 6 3 7 1 3 -5 -5 -8 1 -12 14 -12 14 0 19 -4 14 -12 -6 -10 -4 -10 8 0 10 8
17 9 20 3 1 -6 12 -12 23 -14 11 -1 26 -6 33 -10 6 -5 12 -6 12 -2 0 3 9 1 19
-5 14 -7 22 -7 26 0 4 6 12 7 18 3 16 -10 137 -10 137 0 0 5 5 5 10 2 6 -4 17
-1 25 5 12 10 15 10 15 -1 0 -12 2 -12 9 -1 4 8 11 13 15 13 19 -2 65 13 61
19 -3 4 1 7 8 7 20 -1 77 24 77 35 0 5 5 6 10 3 6 -3 13 1 16 9 3 9 10 14 14
11 4 -3 11 2 14 11 3 8 10 12 16 9 5 -3 10 1 10 9 0 9 4 15 9 13 10 -2 51 41
51 55 0 5 4 7 9 3 5 -3 12 4 16 15 3 11 11 20 16 20 6 0 8 4 5 9 -3 5 1 12 10
15 8 3 12 10 9 16 -3 5 -1 10 6 10 7 0 9 3 6 7 -4 3 1 12 11 20 10 9 11 12 2
7 -12 -6 -12 -4 1 12 9 10 14 25 11 33 -3 8 0 11 7 7 6 -4 11 -3 11 3 0 5 3
17 7 27 5 13 3 15 -8 10 -8 -4 -5 0 5 8 11 9 16 16 11 16 -5 0 -4 5 3 12 8 8
8 17 1 31 -7 13 -7 17 -1 13 7 -4 12 22 14 73 4 92 1 114 -14 105 -7 -5 -8 -2
-2 7 11 18 14 40 5 34 -5 -2 -8 10 -9 27 0 17 -7 35 -14 39 -7 5 -10 9 -5 9 4
0 1 13 -7 29 -9 16 -12 31 -9 35 4 3 1 6 -6 6 -7 0 -9 5 -6 10 3 6 1 10 -4 10
-6 0 -11 7 -11 15 0 7 -8 19 -17 24 -10 6 -15 11 -11 11 16 0 -86 110 -102
110 -6 0 -8 5 -5 10 3 6 -1 10 -9 10 -9 0 -16 4 -16 9 0 5 -13 14 -30 21 -16
7 -30 16 -30 21 0 5 -9 9 -20 9 -11 0 -20 5 -20 11 0 6 -7 8 -16 5 -9 -3 -12
-2 -9 5 4 6 1 9 -6 8 -15 -2 -42 6 -73 22 -14 8 -16 8 -10 -3 6 -10 4 -10 -9
1 -14 11 -17 11 -17 0 0 -11 -2 -11 -9 0 -6 9 -27 15 -53 16 -24 0 -49 5 -57
9 -9 6 -12 5 -7 -2z"/>
<path d="M730 7164 c0 -7 -7 -15 -16 -18 -8 -3 -12 -2 -9 4 3 5 -7 5 -25 -1
-16 -6 -27 -15 -24 -20 3 -5 -2 -9 -10 -9 -8 0 -18 -5 -22 -12 -5 -7 -3 -8 5
-3 9 5 9 1 -1 -14 -7 -12 -15 -21 -18 -21 -9 0 -6 -83 3 -97 5 -7 5 -13 2 -13
-4 0 9 -16 28 -35 22 -22 45 -35 61 -35 14 0 26 -6 26 -12 0 -10 2 -10 8 -1 5
8 13 9 22 3 9 -5 19 -5 27 1 7 6 18 7 25 3 17 -11 39 -11 61 -1 11 5 17 4 17
-5 0 -8 3 -9 8 -3 6 9 27 11 42 5 16 -6 68 -5 64 1 -2 4 8 7 23 6 16 -2 34 3
41 10 8 7 17 11 21 8 5 -2 14 7 21 20 7 13 17 22 22 19 7 -4 13 26 9 49 0 4 3
7 7 7 11 0 3 58 -9 66 -5 3 -9 12 -9 20 0 16 -23 44 -36 44 -4 0 -16 7 -26 17
-14 13 -18 13 -18 2 -1 -10 -4 -8 -11 4 -8 14 -14 15 -24 7 -9 -8 -15 -8 -20
0 -4 7 -12 7 -25 0 -13 -7 -21 -7 -25 0 -5 8 -11 7 -21 -1 -11 -9 -14 -8 -14
2 0 12 -2 12 -9 1 -11 -18 -16 -19 -32 -5 -9 7 -20 8 -29 3 -8 -5 -21 -5 -32
1 -13 7 -18 6 -18 -2 0 -9 -3 -9 -14 0 -11 9 -16 9 -21 0 -6 -8 -10 -7 -16 2
-5 9 -9 10 -9 3z"/>
<path d="M2980 7164 c0 -6 -11 -10 -25 -9 -14 2 -25 -1 -25 -5 0 -5 -12 -15
-27 -22 -16 -7 -32 -23 -38 -36 -5 -12 -12 -22 -15 -22 -5 0 -4 -77 2 -105 2
-12 68 -79 68 -69 0 4 8 0 17 -7 15 -12 16 -12 8 1 -7 12 -6 13 7 3 8 -7 18
-10 22 -6 4 4 11 1 16 -7 9 -13 10 -13 10 0 0 13 1 13 10 0 5 -8 10 -10 10 -5
0 6 9 11 20 12 13 1 18 -2 13 -10 -4 -7 0 -6 10 2 13 10 17 10 17 1 0 -9 3
-10 13 -1 10 8 17 7 27 -2 10 -9 11 -9 6 1 -9 14 10 17 19 2 4 -6 12 -7 18 -3
18 11 40 13 52 4 9 -7 28 -7 40 -1 3 1 14 3 25 4 12 0 25 7 29 15 5 7 13 11
17 9 11 -6 45 28 36 36 -3 3 0 6 7 6 7 0 10 4 7 9 -4 5 -1 11 5 13 13 4 15 88
2 97 -4 3 -9 13 -11 21 -5 22 -22 40 -38 40 -8 0 -14 5 -14 10 0 6 -11 10 -24
10 -14 0 -27 4 -30 9 -7 10 -25 9 -43 -2 -8 -5 -13 -3 -13 3 0 8 -6 8 -20 0
-15 -8 -20 -8 -20 1 0 8 -4 8 -15 -1 -12 -10 -15 -10 -15 0 0 10 -3 10 -14 1
-11 -9 -15 -9 -19 1 -4 10 -6 10 -6 -1 -1 -10 -4 -11 -15 -2 -11 9 -16 9 -21
0 -6 -8 -10 -7 -17 2 -8 11 -11 11 -15 1 -4 -10 -8 -10 -19 -1 -11 9 -14 8
-14 -2 0 -11 -2 -11 -10 1 -5 8 -10 10 -10 4z"/>
<path d="M7522 6803 c-23 -8 -40 -19 -36 -24 5 -8 -9 -13 -28 -10 -5 0 -7 -3
-5 -7 1 -5 -19 -29 -45 -54 -26 -25 -44 -49 -41 -52 4 -3 -1 -6 -10 -6 -9 0
-17 -6 -17 -12 0 -7 -21 -30 -45 -52 -24 -21 -42 -43 -39 -47 3 -5 0 -9 -6 -9
-6 0 -18 -7 -26 -15 -9 -8 -13 -15 -11 -15 3 0 -17 -23 -44 -50 -27 -28 -50
-53 -51 -58 -2 -4 -7 -6 -12 -4 -5 2 -6 -4 -2 -13 3 -9 2 -13 -4 -10 -5 3 -21
-13 -36 -35 -15 -22 -29 -38 -32 -36 -2 3 -10 -1 -17 -7 -9 -9 -10 -16 -2 -25
6 -7 6 -12 1 -10 -5 1 -22 -10 -39 -26 -16 -16 -23 -26 -15 -21 8 4 6 -1 -5
-12 -11 -11 -23 -19 -27 -17 -4 3 -9 -4 -13 -15 -3 -10 -14 -29 -25 -41 -11
-12 -17 -28 -13 -34 4 -6 -1 -5 -10 2 -14 12 -16 11 -12 -7 2 -12 0 -19 -4
-17 -9 6 -42 -30 -34 -37 2 -3 -5 -10 -16 -17 -12 -6 -19 -15 -16 -20 3 -5 -5
-16 -17 -24 -12 -9 -18 -16 -13 -16 5 0 0 -7 -11 -15 -10 -8 -15 -15 -10 -15
5 0 -4 -12 -20 -26 -16 -15 -22 -23 -14 -19 8 5 6 -1 -5 -12 -39 -39 -63 -71
-58 -77 3 -3 -2 -8 -11 -12 -9 -3 -13 -10 -10 -15 3 -5 0 -9 -5 -9 -6 0 -11
-10 -11 -22 0 -19 -2 -20 -10 -8 -9 14 -11 13 -14 -10 -1 -11 -25 -46 -44 -66
-7 -8 -10 -14 -5 -14 4 0 -3 -10 -17 -21 -14 -11 -18 -17 -10 -13 16 8 -11
-28 -40 -54 -13 -12 -13 -13 0 -6 13 7 13 5 1 -9 -7 -9 -17 -14 -22 -11 -5 3
-6 -2 -3 -10 3 -9 1 -16 -5 -16 -6 0 -11 -7 -11 -15 0 -8 -5 -15 -11 -15 -5 0
-7 -4 -4 -10 3 -5 1 -10 -5 -10 -6 0 -8 -4 -5 -10 3 -5 2 -10 -4 -10 -6 0 -18
-16 -27 -35 -9 -19 -21 -32 -27 -28 -6 3 -7 1 -3 -5 4 -6 -1 -20 -11 -32 -10
-11 -18 -25 -18 -30 0 -5 -9 -16 -20 -25 -11 -9 -13 -13 -5 -9 10 5 9 0 -4
-14 -11 -12 -16 -22 -11 -22 4 0 -3 -9 -16 -21 -13 -11 -18 -17 -11 -14 11 6
11 3 1 -13 -7 -12 -17 -18 -21 -16 -5 3 -8 2 -7 -3 3 -18 -2 -31 -21 -53 -11
-12 -17 -27 -14 -31 3 -5 0 -9 -6 -9 -6 0 -8 -5 -5 -10 3 -6 -1 -13 -9 -16 -9
-3 -14 -10 -11 -14 3 -4 -2 -11 -11 -14 -8 -3 -12 -11 -9 -17 4 -5 -1 -19 -11
-30 -10 -11 -19 -27 -20 -36 -2 -9 -9 -20 -16 -24 -7 -5 -9 -9 -4 -9 6 0 2 -6
-9 -13 -10 -8 -15 -19 -11 -25 4 -7 2 -12 -4 -12 -7 0 -9 -7 -6 -16 3 -8 2
-13 -2 -10 -7 4 -32 -40 -34 -61 -1 -4 -8 -15 -16 -23 -9 -9 -11 -15 -4 -18
10 -3 33 13 67 46 8 6 18 12 23 12 6 0 13 7 16 16 3 8 11 12 16 9 6 -4 9 -1 8
6 -2 7 3 13 10 14 7 0 16 5 20 11 4 6 21 19 37 28 17 10 21 14 10 11 -15 -5
-17 -3 -9 5 6 6 20 12 32 13 11 0 19 4 16 8 -2 4 9 16 25 25 17 10 28 21 25
26 -3 4 3 5 12 1 12 -4 15 -3 10 5 -4 7 -1 12 7 12 8 0 18 7 21 16 4 9 13 14
21 10 8 -3 14 -2 12 2 -3 11 43 53 52 47 5 -2 11 5 14 17 4 12 9 19 12 16 4
-3 16 4 29 16 39 37 76 66 76 59 0 -3 10 6 23 20 12 15 26 27 30 27 8 0 44 28
65 52 9 9 19 15 23 12 5 -2 13 5 19 16 6 12 18 19 25 16 9 -3 12 0 9 8 -3 8 0
17 7 22 8 5 10 3 4 -7 -11 -18 17 4 59 46 17 17 34 30 38 30 5 0 13 7 18 15 5
8 10 11 10 6 0 -5 14 7 31 25 18 19 26 25 19 14 -7 -11 3 -3 23 18 21 21 37
34 37 30 0 -4 7 1 15 11 8 11 15 17 15 13 0 -4 12 4 28 18 15 13 40 35 56 49
16 14 35 26 43 26 8 0 12 4 9 9 -6 9 22 26 38 22 5 -1 6 5 3 14 -4 10 -1 15
10 15 9 0 22 8 30 18 8 9 11 11 8 3 -5 -9 1 -8 19 4 20 14 26 14 26 4 0 -11 2
-11 10 1 5 8 10 11 10 5 0 -5 6 -3 12 3 10 10 16 8 31 -10 10 -13 16 -17 12
-11 -4 8 -1 11 9 7 8 -3 18 -14 21 -25 4 -10 11 -18 18 -16 6 1 13 -8 15 -20
2 -13 8 -23 13 -23 5 0 9 -9 9 -20 0 -11 5 -20 10 -20 6 0 10 -9 10 -20 0 -11
4 -20 10 -20 5 0 9 -3 8 -7 -4 -14 26 -83 36 -83 5 0 6 -3 3 -7 -4 -3 -2 -12
3 -19 6 -6 13 -23 15 -35 3 -13 9 -25 15 -27 5 -2 10 -12 10 -21 0 -10 10 -31
22 -47 13 -15 16 -24 8 -19 -8 4 -4 -4 10 -20 14 -16 19 -25 13 -21 -7 4 -13
2 -13 -3 0 -6 3 -11 8 -11 8 0 32 -49 32 -67 0 -7 5 -13 10 -13 6 0 10 -9 10
-20 0 -11 5 -20 11 -20 6 0 8 -7 5 -16 -3 -9 -2 -12 5 -9 6 4 9 1 8 -6 -3 -20
28 -86 43 -92 10 -4 10 -6 0 -6 -10 -1 -10 -5 2 -17 9 -8 14 -20 11 -25 -4 -5
-3 -9 2 -9 4 0 13 -11 20 -25 8 -18 8 -23 0 -18 -6 4 -1 -7 11 -24 12 -17 22
-38 22 -46 0 -8 7 -20 15 -27 8 -7 14 -20 13 -29 -2 -9 3 -15 11 -13 8 2 11
-3 8 -12 -4 -9 -2 -18 3 -21 6 -4 10 -15 10 -26 0 -10 5 -19 10 -19 6 0 10 -9
10 -20 0 -11 5 -20 12 -20 6 0 8 -3 5 -7 -4 -3 -2 -12 4 -20 6 -7 8 -13 3 -13
-5 0 -3 -4 4 -9 8 -5 15 -20 15 -34 1 -14 7 -25 12 -24 6 1 9 -8 9 -20 -1 -13
3 -20 7 -17 8 5 13 -10 10 -28 0 -5 3 -8 9 -8 5 0 10 -9 10 -20 0 -11 5 -20
11 -20 5 0 8 -4 4 -9 -3 -5 0 -15 7 -23 7 -7 14 -20 16 -28 2 -8 8 -18 14 -21
6 -4 5 -9 -3 -12 -10 -4 -10 -6 -1 -6 6 -1 12 -8 12 -17 0 -8 4 -13 9 -9 6 3
8 -4 6 -15 -2 -11 1 -20 6 -20 6 0 8 -4 5 -9 -3 -5 1 -14 8 -20 11 -9 16 -9
22 0 4 8 3 9 -4 5 -15 -9 -15 -1 -2 25 7 13 7 19 1 19 -7 0 -7 9 -1 25 6 17 6
25 -1 25 -6 0 -7 5 -4 11 10 16 13 59 5 59 -10 0 -8 20 3 37 4 6 4 14 -1 16
-4 3 -7 37 -6 76 2 48 -1 69 -8 64 -7 -4 -8 -1 -2 8 11 18 11 49 1 73 -6 13
-6 16 2 12 6 -4 11 -2 11 3 0 6 -5 11 -11 11 -8 0 -8 4 0 14 7 8 8 17 3 20 -5
3 -8 15 -7 28 1 13 -2 29 -8 36 -6 8 -6 12 1 12 6 0 9 10 6 23 -11 48 -11 67
0 67 8 0 8 3 0 8 -10 7 -16 47 -17 120 -1 17 -5 32 -10 32 -5 0 -4 6 2 14 7 8
8 17 3 20 -7 4 -12 47 -16 134 -1 12 -5 22 -9 22 -4 0 -3 10 4 21 8 15 8 19 0
15 -10 -7 -17 51 -12 93 2 7 -2 10 -8 6 -14 -8 -14 1 0 26 8 15 7 24 -2 35 -7
8 -12 28 -11 45 0 20 -3 27 -11 22 -7 -4 -6 0 2 10 7 10 9 17 3 17 -6 0 -9 11
-7 25 1 14 -1 28 -5 30 -5 3 -6 14 -3 24 3 10 0 22 -7 26 -8 5 -8 10 1 21 9
11 9 14 0 14 -7 0 -11 8 -10 18 1 9 -1 25 -6 35 -4 10 -5 21 -1 24 3 3 2 11
-4 18 -5 6 -11 30 -12 53 -2 23 -6 42 -9 42 -6 0 -7 4 -10 58 -1 17 -5 32 -9
32 -4 0 -7 14 -8 31 0 17 -7 38 -14 47 -7 9 -8 13 -2 9 6 -3 11 0 11 8 0 8 -4
12 -9 9 -7 -4 -13 34 -9 59 0 4 -3 7 -8 7 -4 0 -7 11 -5 25 1 14 -3 31 -10 38
-7 7 -11 22 -10 34 2 12 -1 25 -6 28 -5 3 -7 12 -3 20 3 8 1 15 -4 15 -5 0
-10 14 -11 32 -2 17 -7 38 -13 45 -6 7 -9 22 -6 33 3 11 -1 27 -9 34 -8 8 -14
25 -14 39 0 13 -3 27 -7 31 -4 4 -9 19 -11 34 -2 15 -9 30 -15 34 -9 5 -8 8 3
8 10 0 11 3 4 8 -14 9 -35 72 -28 83 3 5 -1 12 -9 15 -8 3 -13 16 -11 30 1 13
-2 24 -7 24 -6 0 -7 5 -4 10 3 6 1 10 -4 10 -6 0 -10 3 -9 8 3 9 -30 58 -37
55 -14 -8 -25 -1 -19 10 4 6 4 9 -1 5 -4 -4 -14 -3 -22 3 -10 9 -13 8 -13 -2
0 -9 -3 -10 -8 -4 -10 15 -22 14 -70 -2z"/>
<path d="M1275 6460 c-4 -6 -13 -9 -20 -6 -14 5 -215 -185 -215 -203 0 -6 -7
-8 -15 -5 -10 4 -15 0 -15 -16 0 -11 -4 -18 -10 -15 -5 3 -11 1 -11 -4 -1 -6
-2 -16 -3 -21 0 -6 -8 -15 -16 -20 -13 -9 -13 -10 0 -10 9 0 11 -3 5 -8 -13
-9 -12 -58 2 -55 5 1 8 -8 6 -21 -3 -13 1 -27 8 -31 8 -6 10 -4 4 5 -5 9 -4
11 3 6 7 -4 12 -14 12 -22 0 -9 5 -12 12 -8 7 5 9 2 6 -8 -5 -11 0 -14 18 -12
13 1 24 -1 24 -5 0 -15 68 -11 84 4 11 11 16 12 16 4 0 -7 20 9 44 34 24 26
49 47 56 47 6 0 9 3 7 8 -6 9 19 33 27 25 3 -4 6 0 6 8 0 8 13 25 29 39 17 13
28 27 25 32 -3 4 3 5 12 1 12 -4 15 -3 10 5 -4 7 -1 15 8 18 8 3 18 14 21 25
4 11 10 17 14 15 3 -2 6 8 5 22 -1 15 4 33 10 41 9 12 8 13 -3 6 -11 -6 -13
-4 -8 8 3 9 2 19 -4 23 -6 3 -8 12 -5 19 3 8 -4 17 -15 20 -10 4 -19 13 -19
21 0 8 -4 12 -10 9 -5 -3 -10 -3 -10 2 0 4 -16 13 -35 19 -25 8 -35 8 -35 0 0
-6 -4 -5 -9 3 -6 10 -10 10 -16 1z"/>
<path d="M2699 6466 c-2 -3 -16 -7 -29 -9 -38 -8 -60 -18 -60 -29 0 -5 -4 -7
-9 -4 -5 3 -11 -4 -14 -15 -4 -13 -10 -18 -18 -13 -8 4 -10 3 -5 -4 4 -7 1
-12 -6 -12 -10 0 -10 -2 1 -9 9 -6 10 -10 2 -16 -9 -5 -9 -10 0 -21 9 -11 9
-14 -1 -14 -9 0 -9 -4 1 -17 11 -13 11 -15 1 -9 -11 7 -11 4 0 -15 7 -13 17
-27 21 -30 5 -3 9 -10 10 -15 1 -5 5 -8 10 -6 4 1 7 -5 7 -14 0 -8 5 -12 10
-9 6 3 10 1 10 -5 0 -15 26 -41 34 -33 3 4 6 -1 6 -9 0 -9 8 -22 17 -29 14
-12 16 -12 8 0 -5 10 -4 12 3 7 7 -4 12 -12 12 -17 0 -12 30 -44 30 -32 0 4 6
-3 13 -17 7 -14 28 -33 47 -43 19 -10 34 -22 32 -28 -1 -6 6 -6 19 2 13 7 19
7 15 1 -4 -6 2 -10 14 -9 11 1 20 6 20 12 0 5 5 3 10 -5 7 -11 10 -11 10 -2 0
7 4 11 9 8 5 -3 14 1 21 9 7 8 16 13 20 10 5 -3 11 4 15 15 4 11 11 17 17 14
6 -4 9 -3 6 2 -3 5 -1 20 4 34 12 30 16 90 6 83 -5 -2 -8 3 -8 12 0 10 -13 29
-30 45 -16 15 -26 30 -23 34 3 3 -1 6 -11 6 -9 0 -15 4 -12 9 3 5 -4 11 -15
14 -12 3 -18 10 -15 15 3 5 -6 14 -20 21 -14 6 -23 14 -21 19 3 4 -1 13 -9 20
-8 7 -14 10 -14 7 0 -3 -6 0 -14 7 -8 7 -12 16 -9 21 2 4 -2 7 -9 7 -8 0 -20
9 -28 19 -7 11 -17 18 -21 15 -4 -2 -15 3 -23 12 -12 11 -16 12 -16 2 0 -10
-2 -10 -8 0 -5 7 -10 10 -13 8z"/>
<path d="M1984 6171 c3 -4 -5 -6 -17 -4 -14 3 -29 -2 -36 -11 -8 -9 -20 -16
-27 -16 -8 0 -14 -7 -14 -15 0 -8 -4 -15 -10 -15 -5 0 -10 -10 -10 -23 0 -13
-5 -28 -12 -35 -9 -9 -9 -12 1 -12 7 0 9 -5 5 -12 -13 -21 -13 -58 -1 -58 7 0
6 -4 -3 -10 -10 -6 -11 -10 -2 -10 6 0 12 -5 12 -11 0 -5 -3 -8 -7 -6 -5 3 -8
-10 -8 -29 0 -19 4 -34 8 -34 4 0 3 -10 -4 -21 -8 -16 -8 -20 1 -14 9 6 9 2 1
-14 -8 -15 -9 -21 -1 -21 6 0 8 -5 4 -12 -12 -18 -12 -48 -1 -48 5 0 7 -7 3
-15 -3 -8 5 -25 19 -39 14 -14 25 -30 25 -36 0 -6 5 -8 11 -4 6 3 14 1 18 -5
15 -23 143 -12 138 12 -1 7 6 11 15 11 10 -1 15 2 12 7 -3 5 0 9 6 9 6 0 9 4
5 9 -3 5 0 13 6 16 5 4 8 13 5 21 -3 8 0 14 6 14 6 0 8 3 5 7 -4 3 -1 13 6 21
6 9 7 13 2 10 -6 -4 -11 13 -12 43 -1 35 2 47 10 42 7 -4 6 1 -2 11 -13 15
-13 19 0 27 8 5 9 9 3 9 -13 0 -13 103 0 112 8 5 7 8 0 8 -7 0 -15 7 -18 16
-3 8 -2 12 4 9 13 -8 13 -2 -2 30 -6 14 -15 25 -20 25 -5 0 -7 3 -5 8 3 4 -1
13 -9 20 -8 7 -14 10 -14 7 0 -4 -7 1 -16 9 -8 9 -20 14 -25 11 -5 -4 -9 -1
-9 4 0 6 -5 11 -11 11 -5 0 -7 -6 -3 -12 6 -10 4 -10 -7 0 -15 14 -33 16 -25
3z"/>
<path d="M7220 5324 c0 -7 -9 -14 -21 -17 -13 -4 -18 -10 -13 -18 4 -7 3 -10
-4 -5 -6 3 -15 -1 -20 -10 -5 -9 -13 -16 -18 -17 -11 -2 -39 -24 -71 -57 -20
-21 -23 -22 -17 -5 7 17 6 18 -8 5 -9 -8 -14 -18 -11 -22 2 -5 0 -8 -5 -8 -4
0 -19 -10 -32 -22 -14 -13 -28 -22 -32 -20 -5 1 -8 -3 -8 -9 0 -5 -4 -7 -10
-4 -9 6 -14 -8 -11 -28 1 -5 -2 -6 -7 -3 -12 7 -73 -39 -64 -49 4 -5 -1 -5
-10 -2 -12 4 -18 1 -18 -8 0 -8 -5 -15 -11 -15 -7 0 -20 -10 -30 -22 -11 -11
-19 -17 -19 -13 0 4 -12 -5 -26 -21 -15 -16 -23 -22 -19 -14 5 8 -3 4 -17 -10
-33 -32 -78 -70 -85 -70 -10 0 -32 -28 -25 -34 3 -4 -1 -4 -11 0 -12 4 -17 1
-17 -11 0 -9 -4 -14 -9 -11 -5 3 -21 -7 -37 -21 -16 -15 -32 -27 -36 -25 -4 1
-10 -7 -13 -18 -4 -11 -10 -18 -15 -15 -5 3 -24 -8 -41 -24 -17 -17 -35 -28
-40 -25 -5 3 -6 -2 -3 -10 4 -11 0 -16 -11 -16 -9 0 -30 -14 -46 -31 -16 -17
-29 -29 -29 -26 0 5 -34 -21 -71 -55 -10 -10 -21 -18 -24 -18 -3 0 -10 0 -16
0 -5 0 -8 -3 -6 -7 5 -8 -15 -31 -30 -36 -5 -1 -7 -5 -6 -9 2 -5 0 -7 -5 -7
-19 3 -33 -2 -27 -10 3 -5 -4 -12 -15 -16 -11 -3 -20 -11 -20 -17 0 -6 -3 -9
-6 -6 -3 3 -15 -4 -28 -16 -12 -11 -32 -28 -45 -36 -42 -27 -61 -47 -53 -55 4
-5 1 -5 -6 -1 -8 5 -22 -2 -36 -17 -13 -14 -27 -23 -30 -20 -3 4 -6 1 -6 -6 0
-7 -5 -9 -10 -6 -6 4 -9 3 -8 -2 2 -4 -1 -10 -7 -12 -19 -9 -33 -26 -27 -35 3
-5 0 -6 -5 -3 -10 7 -88 -59 -88 -74 0 -4 -3 -11 -7 -15 -5 -4 -8 -14 -8 -22
0 -9 -8 -24 -17 -35 -10 -11 -12 -17 -6 -13 9 5 11 2 7 -8 -3 -9 -10 -14 -14
-11 -5 3 -6 -4 -3 -15 3 -12 0 -20 -6 -20 -7 0 -9 -5 -6 -10 4 -6 1 -18 -7
-27 -11 -14 -11 -16 2 -9 8 4 6 0 -4 -8 -11 -9 -16 -16 -12 -16 5 0 2 -8 -5
-17 -9 -11 -10 -14 -2 -9 9 5 11 2 7 -8 -3 -9 -10 -16 -14 -16 -4 0 -7 -6 -7
-12 1 -28 -16 -78 -27 -78 -6 0 -4 -5 4 -10 11 -7 11 -10 2 -10 -7 0 -10 -4
-7 -10 3 -6 2 -10 -4 -10 -6 0 -7 -7 -4 -17 4 -10 2 -14 -4 -10 -6 4 -9 -3 -7
-18 1 -14 -1 -25 -5 -25 -4 0 -7 -9 -7 -20 0 -25 0 -25 29 4 14 14 28 22 31
19 3 -4 6 -1 6 5 0 6 9 14 20 17 11 4 18 10 15 14 -2 5 7 13 21 20 15 6 22 16
18 23 -4 6 -3 8 4 4 6 -3 13 -2 17 4 4 6 11 7 17 4 7 -4 8 -2 4 4 -4 7 -1 12
9 12 9 0 13 5 10 10 -3 6 1 10 9 10 9 0 16 7 16 15 0 9 6 12 17 8 11 -4 14 -3
9 5 -4 7 -2 12 3 12 10 0 34 18 87 66 13 12 21 24 17 28 -4 4 0 4 9 1 10 -4
23 3 34 18 19 23 25 27 45 27 5 0 7 5 4 10 -3 6 2 13 12 17 10 4 27 15 37 25
11 10 23 18 28 18 4 0 8 7 8 15 0 9 6 12 15 9 9 -4 15 0 15 10 0 9 6 16 14 16
8 0 17 7 20 16 4 9 9 14 12 11 3 -3 19 8 35 24 15 16 31 29 35 29 4 0 18 12
32 28 13 15 21 20 17 12 -4 -8 4 -2 19 14 14 16 26 26 26 23 0 -4 8 1 18 11
11 9 17 20 15 24 -2 4 2 5 10 2 8 -3 17 2 21 11 3 9 10 13 16 10 5 -3 10 1 10
9 0 9 6 16 14 16 7 0 21 11 30 25 9 14 23 25 31 25 8 0 15 7 15 15 0 8 9 15
20 15 11 0 23 7 26 15 3 8 14 17 25 20 11 4 17 10 14 14 -2 5 7 13 20 19 14 7
25 16 25 22 0 5 3 9 8 8 4 -1 20 10 36 25 16 14 32 24 37 21 8 -5 13 10 10 29
-1 5 3 6 9 2 5 -3 13 1 16 9 3 9 10 14 14 11 5 -3 15 4 23 15 7 11 17 17 20
13 4 -3 7 -1 7 6 0 7 5 9 10 6 6 -3 10 1 10 10 0 11 5 15 15 12 8 -4 17 -1 21
5 5 7 2 8 -7 3 -8 -4 -5 1 6 12 11 11 23 19 28 16 4 -2 7 3 7 11 0 9 4 15 9
14 5 -2 25 12 45 30 20 18 42 30 48 26 7 -4 8 -3 4 4 -6 11 6 16 19 10 2 -2
11 6 20 17 8 11 15 16 14 10 -3 -24 2 -27 16 -9 9 11 14 14 15 6 0 -7 6 -12
13 -11 26 3 38 -1 31 -13 -4 -7 -3 -8 4 -4 13 8 52 -23 52 -41 0 -7 3 -13 8
-13 4 0 12 -11 19 -25 8 -19 8 -24 0 -19 -7 3 -4 -1 7 -10 10 -8 15 -19 11
-25 -3 -6 -1 -11 4 -11 6 0 11 -9 11 -19 0 -11 5 -21 10 -23 6 -2 12 -13 13
-26 0 -12 5 -22 9 -22 4 0 8 -7 8 -15 0 -8 5 -15 12 -15 6 0 8 -3 5 -7 -4 -3
-1 -13 6 -21 10 -13 9 -15 -3 -8 -9 4 -8 2 2 -7 10 -8 15 -17 11 -20 -3 -4 -1
-7 5 -7 7 0 11 -3 10 -7 -1 -5 9 -30 22 -58 13 -27 24 -54 24 -60 1 -5 8 -16
16 -23 13 -12 13 -13 0 -6 -10 5 -8 -1 5 -16 13 -15 15 -21 5 -16 -8 4 -4 -2
10 -14 14 -12 18 -19 10 -15 -9 4 -8 1 3 -8 13 -11 15 -17 6 -22 -8 -6 -7 -10
5 -17 9 -5 14 -14 10 -19 -3 -6 7 -24 22 -41 16 -17 23 -28 17 -24 -17 9 -16
-3 0 -23 8 -9 20 -32 27 -51 8 -19 17 -38 22 -41 4 -3 9 -17 10 -32 1 -15 8
-27 16 -27 7 0 10 -4 7 -10 -3 -5 1 -20 9 -32 8 -13 16 -27 18 -33 2 -5 6 -9
10 -8 3 1 5 -9 3 -22 -1 -14 2 -25 6 -25 5 0 9 -7 9 -15 0 -8 5 -15 10 -15 6
0 10 -11 10 -25 0 -14 5 -25 10 -25 6 0 10 -8 10 -18 0 -11 9 -27 19 -36 11
-10 18 -26 16 -37 -2 -10 1 -19 7 -19 5 0 8 -7 4 -15 -3 -8 -2 -15 2 -15 4 0
13 -9 20 -21 9 -13 9 -18 2 -14 -7 4 -7 -1 2 -14 7 -12 16 -21 20 -21 4 0 5
-9 3 -20 -2 -13 2 -20 11 -20 8 0 14 -5 14 -11 0 -5 -6 -7 -12 -4 -7 4 -3 -2
10 -14 15 -13 19 -22 11 -27 -8 -5 -7 -10 5 -16 9 -5 14 -13 11 -19 -4 -5 -1
-9 5 -9 7 0 9 -7 6 -16 -3 -8 -2 -12 4 -9 9 6 11 1 14 -37 1 -7 8 -20 16 -28
9 -8 15 -22 15 -30 0 -8 5 -21 12 -28 7 -8 11 -18 8 -23 -4 -5 -1 -9 4 -9 6 0
11 -7 11 -15 0 -8 5 -15 11 -15 5 0 8 -4 5 -9 -8 -13 4 -42 15 -35 5 3 6 -2 3
-10 -3 -9 -1 -16 6 -16 6 0 9 -4 5 -9 -3 -5 -1 -12 5 -16 6 -4 7 -11 4 -17 -4
-7 -2 -8 5 -4 6 4 9 12 6 17 -4 5 0 9 7 9 9 0 9 3 -2 10 -12 8 -12 10 -1 10
11 0 11 3 0 17 -10 11 -10 14 -1 9 9 -5 12 4 12 34 0 23 4 39 8 36 5 -3 9 1 9
9 0 8 -5 11 -11 8 -6 -3 -6 -1 1 7 6 7 9 19 6 26 -3 8 -1 14 5 14 6 0 8 9 5
20 -3 11 -2 28 2 37 7 16 11 47 14 111 1 15 5 21 14 16 10 -6 10 -4 0 7 -14
14 -18 33 -5 26 4 -3 6 22 6 56 -1 34 -7 63 -12 65 -6 2 -8 10 -5 18 3 8 0 14
-6 14 -6 0 -11 9 -11 21 0 11 -9 32 -20 46 -11 14 -17 29 -14 34 3 5 0 9 -6 9
-6 0 -8 5 -5 10 3 6 1 10 -5 10 -7 0 -9 7 -6 16 4 10 2 13 -6 8 -8 -5 -9 -2
-5 9 3 10 2 17 -3 17 -6 0 -10 7 -10 16 0 8 -3 13 -7 11 -5 -3 -9 7 -10 21 0
14 -7 31 -15 36 -7 6 -13 18 -13 26 0 8 -2 17 -5 20 -11 11 -30 51 -30 65 0 8
-5 15 -11 15 -5 0 -7 5 -4 10 3 6 1 10 -6 10 -7 0 -9 3 -6 7 4 3 -1 15 -10 26
-10 11 -12 17 -6 13 14 -8 -16 55 -32 66 -5 4 -6 8 -1 8 5 0 4 6 -2 13 -6 6
-12 17 -14 22 -1 6 -6 9 -10 8 -4 -2 -5 6 -3 17 2 11 0 20 -6 20 -5 0 -9 9 -9
20 0 11 -5 20 -11 20 -5 0 -7 5 -4 10 3 6 1 10 -6 10 -7 0 -9 3 -6 7 4 3 0 14
-9 24 -9 10 -14 24 -12 31 3 7 -2 19 -11 26 -9 8 -10 10 -3 7 11 -6 11 -3 1
13 -7 12 -16 19 -20 16 -4 -2 -5 6 -1 18 3 14 2 19 -6 14 -8 -5 -12 2 -12 18
0 14 -4 26 -10 26 -5 0 -10 9 -10 20 0 11 -6 20 -12 20 -9 0 -8 4 2 10 11 7
11 10 2 10 -12 0 -33 44 -31 64 0 5 -4 12 -9 15 -6 3 -12 13 -14 21 -2 8 -9
21 -16 29 -7 7 -11 20 -8 27 3 8 1 14 -4 14 -6 0 -10 7 -10 16 0 8 -4 12 -10
9 -6 -3 -7 1 -4 9 3 9 1 16 -4 16 -6 0 -9 9 -7 20 2 11 0 18 -6 15 -5 -4 -9 3
-9 14 0 12 -5 21 -11 21 -6 0 -9 9 -6 20 3 11 1 18 -4 14 -5 -3 -9 2 -9 11 0
9 -4 14 -9 11 -5 -4 -7 3 -4 14 3 11 0 20 -6 20 -6 0 -11 9 -11 20 0 11 -4 20
-9 20 -5 0 -12 7 -15 16 -4 10 -2 13 7 8 6 -4 4 2 -5 13 -10 11 -18 25 -18 31
0 6 -7 18 -16 26 -12 12 -12 16 -2 16 8 1 6 6 -6 15 -11 8 -16 15 -12 15 5 0
3 7 -4 15 -6 8 -9 19 -6 24 4 5 -2 14 -11 20 -10 5 -15 13 -11 16 4 4 0 14 -8
22 -8 9 -18 28 -21 44 -3 16 -9 29 -14 29 -5 0 -9 9 -9 19 0 14 -7 19 -25 17
-14 0 -25 -6 -25 -12z"/>
<path d="M7016 4448 c3 -4 -7 -13 -21 -18 -14 -5 -24 -14 -21 -19 3 -5 -6 -12
-19 -15 -14 -4 -23 -11 -20 -16 3 -6 -1 -10 -9 -10 -9 0 -16 -4 -16 -10 0 -5
-5 -10 -11 -10 -7 0 -19 -8 -28 -18 -9 -10 -24 -21 -33 -25 -10 -3 -18 -13
-18 -22 0 -8 -3 -14 -7 -14 -20 3 -34 -2 -28 -10 3 -5 -4 -12 -15 -16 -11 -4
-18 -11 -15 -16 3 -5 0 -6 -8 -3 -8 3 -17 -2 -20 -10 -4 -9 -11 -16 -17 -16
-15 0 -41 -26 -33 -34 4 -3 -1 -6 -10 -6 -9 0 -17 -4 -17 -10 0 -5 -6 -10 -13
-10 -7 0 -20 -8 -28 -17 -24 -27 -73 -68 -82 -68 -4 0 -12 -7 -17 -15 -5 -8
-14 -16 -20 -16 -23 -3 -24 -5 -10 -14 12 -8 11 -10 -6 -10 -12 0 -25 -7 -28
-16 -4 -9 -9 -14 -12 -11 -4 3 -20 -7 -36 -23 -16 -17 -34 -30 -39 -30 -6 0
-7 -5 -3 -11 4 -7 2 -10 -6 -7 -7 2 -25 -8 -39 -22 -42 -39 -81 -70 -81 -64 0
4 -10 -5 -21 -20 -12 -15 -23 -25 -26 -22 -2 2 -20 -11 -40 -30 -19 -19 -39
-34 -44 -34 -6 0 -7 -5 -4 -10 4 -6 3 -10 -2 -9 -21 4 -33 -2 -33 -17 0 -8 -4
-13 -8 -10 -5 3 -15 -4 -22 -15 -8 -10 -20 -19 -27 -19 -7 0 -13 -4 -13 -9 0
-5 -20 -22 -45 -39 -24 -16 -42 -32 -39 -35 3 -3 -4 -8 -15 -12 -12 -3 -21
-11 -21 -16 0 -6 -4 -8 -8 -5 -5 3 -15 -4 -22 -15 -8 -10 -20 -19 -28 -19 -7
0 -10 -4 -7 -10 6 -9 -8 -14 -28 -11 -5 1 -6 -3 -3 -8 3 -5 -2 -15 -11 -22
-14 -12 -16 -12 -8 0 5 10 4 12 -3 7 -7 -4 -12 -14 -12 -22 0 -8 -5 -12 -10
-9 -6 3 -13 -1 -16 -9 -3 -9 -9 -14 -13 -11 -4 2 -14 -5 -21 -16 -8 -10 -20
-19 -28 -19 -7 0 -10 -4 -7 -10 3 -5 -1 -10 -9 -10 -9 0 -16 -4 -16 -10 0 -5
-4 -10 -9 -10 -5 0 -22 -12 -38 -27 -16 -16 -39 -35 -52 -43 -50 -32 -82 -63
-77 -76 3 -7 1 -16 -5 -20 -6 -3 -8 -12 -5 -20 3 -8 2 -14 -3 -14 -5 0 -9 -15
-9 -32 0 -18 -1 -36 -2 -40 -5 -15 -8 -28 -9 -39 0 -5 -6 -7 -13 -3 -7 5 -8 3
-2 -7 11 -18 14 -39 6 -39 -4 0 -8 -24 -10 -52 -2 -29 -9 -56 -15 -60 -9 -6
-8 -8 2 -8 10 0 11 -3 2 -13 -6 -8 -8 -17 -4 -21 4 -4 1 -11 -7 -16 -8 -6 -10
-10 -4 -10 15 0 5 -50 -10 -50 -7 0 -6 -4 2 -9 17 -11 17 -21 0 -32 -10 -7
-10 -9 0 -9 8 0 10 -5 5 -12 -4 -7 -8 -25 -9 -39 0 -14 -4 -38 -8 -53 -5 -21
-4 -26 6 -20 7 5 5 -4 -5 -19 -10 -15 -13 -27 -7 -27 6 0 8 -5 3 -12 -4 -7 -8
-36 -8 -65 -1 -29 -4 -56 -8 -59 -4 -4 -2 -13 4 -21 6 -7 7 -13 2 -13 -5 0 -9
-9 -10 -20 -1 -13 2 -18 10 -13 7 3 3 -4 -8 -17 -11 -13 -14 -20 -7 -16 11 7
12 4 3 -12 -8 -14 -20 -20 -41 -20 -18 1 -27 5 -23 12 4 6 -1 5 -10 -3 -14
-11 -17 -11 -17 0 0 9 -3 10 -8 4 -10 -14 -32 -17 -32 -4 0 8 -4 8 -14 0 -8
-7 -17 -8 -19 -4 -3 5 -36 8 -74 8 -37 -1 -71 4 -75 10 -5 7 -8 7 -8 0 0 -6
-22 -10 -50 -9 -27 0 -47 -3 -44 -8 3 -4 -1 -8 -9 -8 -18 0 -68 -50 -62 -60 3
-5 0 -10 -7 -12 -7 -3 -12 -24 -12 -50 -1 -25 2 -44 5 -42 7 4 33 -47 30 -59
-1 -5 3 -6 9 -2 5 3 10 1 10 -4 0 -6 9 -11 20 -11 11 0 20 -4 20 -9 0 -6 8
-10 18 -9 82 2 223 -6 228 -14 3 -5 10 -5 17 0 16 13 47 11 47 -2 0 -6 5 -4
10 4 9 13 10 13 10 0 0 -12 2 -12 9 -1 6 9 11 10 15 2 4 -6 12 -11 17 -11 6 0
7 6 3 13 -6 9 -5 9 7 0 13 -10 49 -15 127 -14 17 0 32 -4 32 -8 0 -4 18 -7 40
-6 22 1 40 -1 40 -6 0 -4 10 -5 22 -1 16 4 19 2 13 -9 -8 -12 -6 -12 8 0 9 7
17 9 17 4 0 -6 12 -9 26 -7 33 3 56 -5 48 -18 -4 -6 1 -6 13 1 11 6 23 8 25 5
5 -4 22 -8 73 -18 6 -1 16 -6 24 -10 9 -6 12 -5 7 2 -4 7 4 6 20 -3 14 -7 35
-12 45 -10 11 2 19 0 19 -5 0 -5 7 -6 17 -3 11 4 14 3 9 -5 -5 -8 -2 -10 9 -6
8 4 21 1 28 -4 7 -6 22 -10 32 -8 11 2 23 -1 27 -7 3 -6 23 -11 43 -13 21 -1
41 -8 46 -16 5 -7 9 -9 9 -4 0 5 8 2 17 -5 10 -9 14 -9 10 -2 -5 8 2 7 20 -2
15 -8 36 -15 45 -15 9 0 20 -5 23 -10 4 -6 11 -8 16 -5 5 4 9 2 9 -4 0 -5 11
-8 25 -7 13 2 22 0 20 -4 -6 -10 24 -22 36 -14 5 3 9 0 9 -5 0 -6 9 -11 19
-11 11 0 23 -4 26 -10 3 -5 15 -10 26 -10 11 0 17 -4 14 -10 -3 -6 1 -7 9 -4
9 3 16 1 16 -5 0 -6 7 -8 17 -4 11 4 14 3 9 -5 -5 -8 1 -12 18 -12 14 0 26 -5
26 -11 0 -6 7 -9 15 -5 8 3 15 1 15 -5 0 -6 5 -7 10 -4 6 3 10 -2 10 -12 0
-14 2 -15 9 -5 6 11 10 10 15 -4 3 -9 9 -14 13 -11 3 4 12 2 20 -4 7 -6 13 -8
13 -4 0 5 8 -1 18 -11 15 -17 25 -22 57 -27 5 -1 18 -11 28 -22 10 -11 16 -14
12 -5 -4 8 1 6 10 -5 9 -11 22 -19 29 -17 8 1 16 -5 20 -13 3 -9 10 -13 16
-10 5 3 10 2 10 -4 0 -5 10 -13 23 -17 12 -4 30 -16 40 -27 9 -11 17 -16 17
-11 0 5 6 2 13 -7 7 -9 22 -19 35 -23 12 -4 22 -15 22 -24 0 -14 2 -14 9 -3 7
11 10 9 16 -8 3 -11 13 -21 21 -21 8 0 14 -5 14 -11 0 -5 4 -8 9 -5 5 3 11 -1
15 -9 3 -8 13 -15 21 -15 9 0 13 -4 10 -10 -3 -5 -1 -10 5 -10 15 0 40 -25 40
-40 0 -6 5 -8 10 -5 6 3 10 1 10 -5 0 -6 4 -9 8 -6 5 3 15 -6 22 -19 7 -13 16
-22 20 -20 4 2 13 -7 20 -21 10 -18 16 -21 22 -12 5 9 8 6 8 -9 0 -14 6 -23
15 -23 14 0 20 -12 16 -33 -1 -5 2 -6 7 -3 5 3 22 -11 38 -32 16 -20 37 -44
47 -54 9 -10 17 -20 17 -23 0 -3 13 -19 30 -35 19 -18 25 -30 17 -34 -7 -2 -4
-5 6 -5 9 -1 17 -5 17 -11 0 -5 7 -10 15 -10 8 0 15 -4 15 -10 0 -5 5 -10 11
-10 5 0 7 6 3 13 -6 9 -5 9 8 0 24 -20 112 -4 122 23 3 8 13 14 23 14 14 0 15
2 4 9 -11 7 -10 11 5 20 11 6 16 11 12 11 -4 0 -3 13 2 29 6 21 4 35 -8 52 -8
12 -10 19 -4 15 7 -4 12 -2 12 4 0 6 -7 13 -16 17 -8 3 -13 12 -10 19 3 8 0
13 -6 11 -11 -2 -13 3 -17 35 0 6 -4 9 -7 5 -7 -7 -34 17 -34 30 0 5 -9 15
-19 23 -11 7 -18 17 -15 22 3 4 -3 8 -13 8 -15 0 -16 2 -3 10 10 6 11 10 3 10
-16 0 -113 94 -113 109 0 6 -6 11 -14 11 -8 0 -16 6 -19 13 -4 13 12 58 25 67
4 3 9 17 12 30 2 14 9 24 16 22 6 -1 9 2 6 7 -8 12 14 61 27 61 5 0 7 9 4 20
-3 13 0 20 8 20 8 0 12 8 10 19 -2 11 3 22 12 25 9 4 13 9 10 13 -4 3 -1 15 5
27 7 11 11 24 10 29 -1 4 2 7 8 7 6 0 9 3 8 8 -1 4 3 18 9 32 6 14 10 27 10
30 0 3 6 16 13 30 8 14 13 28 12 33 -1 4 3 7 9 7 5 0 8 4 4 9 -3 5 1 15 8 23
8 7 12 19 9 26 -2 6 2 12 10 12 10 0 9 3 -2 10 -8 5 -10 10 -5 10 14 0 40 61
44 103 1 5 5 6 9 3 5 -3 8 8 7 25 -1 20 2 28 10 25 9 -3 11 2 7 16 -3 12 -1
19 4 16 5 -4 10 4 11 15 4 36 9 56 16 63 4 4 7 16 7 26 0 11 4 17 9 14 4 -3 8
2 8 12 0 40 4 53 12 47 6 -3 8 4 6 15 -2 11 0 20 5 20 5 0 7 6 4 14 -3 8 -1
17 5 20 6 4 8 13 4 21 -3 8 -1 15 4 15 5 0 9 10 10 22 1 11 6 24 10 27 4 3 8
17 8 31 0 14 4 28 8 31 5 3 9 22 10 41 1 20 5 34 8 32 4 -2 9 5 12 16 3 11 1
18 -5 17 -10 -2 -38 69 -30 78 3 3 -1 5 -8 5 -7 0 -11 3 -7 6 3 4 -1 13 -9 21
-8 8 -12 19 -9 24 4 5 1 9 -4 9 -6 0 -11 7 -11 15 0 14 -19 54 -30 65 -3 3 -5
12 -5 20 0 8 -6 20 -13 26 -8 5 -15 22 -15 36 -1 14 -5 24 -9 21 -7 -4 -12 12
-9 30 0 4 -4 7 -10 7 -5 0 -8 4 -4 9 3 5 -1 16 -9 24 -8 8 -12 17 -9 21 4 3 2
6 -4 6 -5 0 -10 7 -11 15 -1 8 -3 22 -4 30 -1 8 -5 12 -9 9 -4 -2 -10 0 -14 6
-3 5 -1 10 5 10 7 0 5 7 -4 16 -9 8 -16 18 -17 22 -3 30 -10 47 -18 50 -6 2
-11 10 -11 19 0 8 -9 26 -20 41 -16 20 -18 27 -8 34 10 6 10 8 1 8 -7 0 -13 7
-13 15 0 8 -4 15 -10 15 -5 0 -10 9 -10 19 0 11 -4 23 -10 26 -5 3 -10 15 -10
26 0 10 -4 19 -10 19 -5 0 -10 8 -10 18 0 11 -9 29 -20 42 -16 18 -17 25 -8
32 9 5 7 8 -7 8 -17 0 -17 2 -5 10 9 6 10 10 3 10 -10 0 -32 44 -22 46 2 0 -4
9 -14 19 -10 9 -16 23 -13 30 3 8 -2 16 -9 19 -8 3 -12 12 -9 21 4 8 0 17 -9
21 -9 3 -13 12 -10 21 4 11 2 14 -5 9 -8 -5 -12 1 -12 18 0 14 -5 26 -11 26
-6 0 -9 9 -6 20 3 11 0 18 -7 17 -6 -1 -10 4 -8 12 1 7 -5 20 -15 28 -10 8
-11 11 -3 7 12 -6 12 -4 -1 12 -9 10 -15 27 -14 37 2 9 0 15 -5 12 -5 -3 -14
11 -20 30 -6 19 -16 33 -21 30 -5 -4 -6 1 -3 9 3 8 -2 26 -11 40 -10 14 -14
26 -10 26 3 0 -1 7 -9 16 -9 8 -16 24 -16 33 0 10 -7 24 -15 31 -9 7 -14 19
-11 27 3 7 1 13 -4 13 -6 0 -10 7 -10 15 0 8 -11 34 -25 58 -13 25 -21 47 -18
51 4 3 2 6 -4 6 -6 0 -13 13 -16 29 -3 16 -13 36 -22 45 -9 9 -13 21 -9 27 4
8 3 9 -5 5 -8 -5 -10 0 -7 16 3 21 0 24 -24 24 -16 0 -27 -3 -24 -8z"/>
<path d="M7467 1319 c7 -7 15 -10 18 -7 3 3 -2 9 -12 12 -14 6 -15 5 -6 -5z"/>
</g>
</svg>
